<?xml version="1.0" standalone="no"?>
<!DOCTYPE svg PUBLIC "-//W3C//DTD SVG 20010904//EN"
 "http://www.w3.org/TR/2001/REC-SVG-20010904/DTD/svg10.dtd">
<svg version="1.0" xmlns="http://www.w3.org/2000/svg"
 width="512.000000pt" height="512.000000pt" viewBox="0 0 512.000000 512.000000"
 preserveAspectRatio="xMidYMid meet">
<metadata>
Created by potrace 1.14, written by Peter Selinger 2001-2017
</metadata>
<g transform="translate(0.000000,512.000000) scale(0.100000,-0.100000)"
fill="#000000" stroke="none">
<path d="M1280 5042 c-31 -15 -87 -59 -130 -102 -121 -119 -184 -245 -182
-367 1 -88 38 -155 111 -203 l23 -15 -38 -25 c-21 -14 -51 -43 -65 -65 -47
-69 -49 -106 -36 -488 1 -27 -2 -52 -8 -56 -5 -4 -44 -14 -85 -21 -41 -7 -100
-19 -130 -27 -30 -8 -62 -16 -70 -18 -58 -13 -85 -22 -165 -60 -49 -24 -110
-59 -135 -78 -25 -18 -59 -41 -76 -50 -32 -16 -49 -41 -39 -57 3 -5 -5 -35
-18 -67 -47 -112 -53 -168 -50 -483 4 -358 8 -420 36 -551 14 -64 28 -140 32
-170 3 -30 8 -72 10 -94 3 -22 8 -80 11 -130 7 -109 6 -934 -1 -946 -8 -11 -7
-257 0 -294 36 -186 122 -301 271 -363 41 -17 183 -55 287 -77 10 -2 27 -7 37
-10 21 -7 11 -5 200 -43 80 -16 179 -35 220 -42 41 -7 84 -14 95 -17 26 -5
306 -41 365 -47 25 -2 74 -7 110 -11 364 -36 903 -40 1275 -10 136 12 233 21
295 30 14 2 68 9 120 15 52 6 106 14 120 16 14 3 39 7 55 10 17 3 77 13 135
24 58 10 119 20 135 23 17 2 91 19 165 36 74 18 142 34 150 36 224 50 307 87
400 177 58 56 69 72 93 145 16 45 30 94 33 110 3 15 10 51 15 78 9 54 4 439
-8 570 -4 44 -8 161 -8 260 0 175 1 182 29 255 32 84 71 282 76 386 7 159 2
339 -17 634 -8 122 -8 401 0 446 7 43 -32 116 -96 182 -92 94 -281 167 -557
217 -52 9 -100 21 -107 27 -6 5 -38 11 -70 13 -32 2 -70 8 -86 14 l-27 11 6
132 c9 186 7 283 -7 326 -18 57 -47 99 -84 122 l-34 21 44 43 c28 29 48 60 58
92 14 48 15 151 2 209 -29 134 -170 355 -226 355 -46 0 -162 -79 -234 -159
-96 -106 -146 -218 -148 -326 -1 -85 19 -131 82 -192 25 -25 38 -43 30 -43
-19 0 -72 -55 -93 -98 -22 -44 -28 -95 -30 -265 l-1 -141 -55 3 c-30 2 -77 5
-105 6 -27 2 -122 6 -210 10 -88 3 -165 8 -172 10 -9 3 -12 33 -10 107 5 165
-25 253 -100 295 l-33 19 41 34 c55 43 82 107 82 186 -1 80 -44 212 -94 285
-10 14 -28 50 -39 80 -26 66 -55 99 -88 99 -68 0 -244 -138 -318 -250 -71
-107 -98 -222 -74 -310 8 -31 27 -60 61 -94 53 -53 55 -56 36 -56 -22 0 -75
-63 -93 -110 -11 -31 -16 -82 -17 -167 -2 -115 -3 -123 -22 -124 -11 -1 -45
-3 -75 -4 -30 -1 -95 -5 -145 -10 -49 -4 -121 -8 -160 -10 -38 -2 -89 -7 -111
-10 -50 -8 -52 -5 -48 95 6 164 6 248 -1 281 -13 62 -44 109 -91 139 -39 25
-43 29 -25 35 30 9 81 79 97 131 41 139 -39 378 -176 522 -37 39 -49 39 -120
4z m80 -149 c0 -7 -5 -13 -11 -13 -7 0 -34 -14 -62 -31 l-50 -31 34 42 c19 23
41 50 49 60 14 17 16 17 28 2 6 -8 12 -22 12 -29z m2375 26 c-4 -5 -21 -16
-38 -25 l-32 -16 29 30 c16 17 33 29 38 26 4 -3 6 -10 3 -15z m-1195 -73 c0
-2 -12 -12 -27 -21 l-28 -18 19 21 c17 20 36 29 36 18z m1264 -43 c8 -20 6
-22 -69 -63 l-60 -33 35 38 c19 21 42 46 50 56 19 22 36 23 44 2z m-1195 -107
c-18 -17 -140 -85 -138 -77 2 6 31 38 64 72 l59 61 9 -27 c5 -14 7 -28 6 -29z
m-1159 14 c0 -5 -10 -15 -22 -21 -23 -12 -23 -12 -4 10 21 23 26 26 26 11z
m2083 -25 c-19 -26 -43 -40 -43 -25 0 8 47 50 57 50 2 0 -4 -11 -14 -25z m320
-67 c-4 -8 -95 -59 -99 -56 -1 2 18 27 44 57 44 52 47 53 53 30 3 -13 4 -27 2
-31z m-1483 19 c0 -2 -18 -20 -39 -41 -33 -33 -39 -35 -34 -16 5 20 73 73 73
57z m1234 -113 l-68 -76 -18 22 c-10 12 -18 25 -18 29 0 6 158 100 168 101 2
0 -27 -34 -64 -76z m-950 41 c-5 -13 -67 -55 -82 -55 -3 0 11 18 33 40 37 38
60 45 49 15z m-1524 -20 c-7 -8 -17 -15 -23 -15 -6 0 -2 7 9 15 25 19 30 19
14 0z m340 11 c0 -2 -7 -9 -15 -16 -13 -11 -14 -10 -9 4 5 14 24 23 24 12z
m-207 -93 c-45 -53 -60 -60 -87 -40 -17 12 -12 17 50 53 38 22 71 39 73 37 2
-2 -14 -24 -36 -50z m1117 -28 c-53 -53 -55 -55 -65 -34 -6 15 -6 24 0 26 6 2
33 17 60 33 28 16 52 30 55 30 2 0 -20 -25 -50 -55z m1313 -26 c-11 -12 -27
-19 -34 -17 -9 3 -3 11 16 21 40 22 43 21 18 -4z m-2444 -93 c-2 -2 -15 -9
-29 -16 -23 -12 -24 -12 -11 3 7 10 20 17 29 17 8 0 13 -2 11 -4z m2410 1
c-27 -22 -81 -48 -74 -36 18 31 29 39 53 39 14 0 23 -1 21 -3z m-2245 -56 c17
-19 15 -21 -56 -62 -40 -23 -77 -44 -83 -47 -9 -6 12 20 79 96 34 37 37 38 60
13z m2390 0 c6 -9 -85 -74 -92 -66 -6 6 62 74 75 74 6 1 14 -3 17 -8z m-1314
-45 c-25 -24 -134 -81 -125 -65 35 62 56 79 98 79 36 0 39 -2 27 -14z m-1361
-83 c-13 -15 -29 -33 -35 -40 -16 -17 -25 -4 -13 18 8 15 53 47 68 49 3 0 -6
-12 -20 -27z m1499 15 c7 -10 -7 -23 -57 -51 l-66 -38 50 50 c53 55 57 57 73
39z m1232 -7 c0 -4 -19 -21 -42 -36 l-43 -28 34 37 c34 35 51 44 51 27z
m-2381 -61 c-4 -9 -20 -22 -36 -30 -15 -8 -50 -27 -76 -42 -26 -16 -50 -28
-52 -28 -2 0 33 36 78 79 74 72 83 78 88 58 3 -12 2 -29 -2 -37z m2016 30
c-10 -11 -23 -20 -29 -20 -6 1 0 10 13 20 30 26 39 26 16 0z m-815 -99 c0 -12
-21 -31 -61 -55 -34 -20 -63 -35 -64 -34 -3 3 114 108 120 108 3 0 5 -8 5 -19z
m-1460 6 c0 -1 -34 -36 -75 -77 l-75 -74 0 34 c0 32 5 38 68 76 61 38 82 49
82 41z m1099 -16 c-7 -10 -20 -23 -30 -30 -15 -9 -19 -8 -19 4 0 8 12 21 28
29 35 19 34 19 21 -3z m1561 9 c0 -5 -15 -17 -32 -26 l-33 -16 30 26 c34 29
35 29 35 16z m-375 -50 c-29 -30 -45 -38 -45 -21 0 8 58 50 69 51 3 0 -8 -13
-24 -30z m-1115 -74 c0 -2 -7 -7 -16 -10 -8 -3 -12 -2 -9 4 6 10 25 14 25 6z
m1479 -40 c-8 -7 -32 -23 -54 -36 l-40 -22 50 45 c28 25 52 41 54 35 2 -5 -3
-16 -10 -22z m-2379 -9 c0 -7 -19 -23 -42 -35 l-43 -23 40 35 c46 41 45 40 45
23z m665 -57 c-3 -4 -29 -21 -58 -38 -28 -16 -150 -86 -269 -155 -161 -93
-218 -122 -218 -109 1 11 80 70 217 162 192 129 222 146 267 150 55 6 69 3 61
-10z m700 -10 c-61 -36 -65 -36 -65 -7 0 33 7 37 64 37 l51 0 -50 -30z m280 4
c-21 -16 -150 -92 -266 -157 -54 -30 -68 -34 -73 -22 -4 11 32 41 127 104 122
83 136 90 182 90 47 0 49 -1 30 -15z m-1300 -8 c-28 -19 -232 -136 -238 -136
-2 0 -4 10 -4 23 0 16 17 34 64 67 59 41 86 50 173 58 24 2 24 2 5 -12z m1513
-1 c-5 -4 -361 -211 -385 -224 -41 -21 -24 -5 30 29 28 18 104 67 167 108 119
78 169 104 183 95 5 -3 7 -6 5 -8z m212 -49 c0 -8 -72 -58 -77 -53 -2 3 12 17
34 31 41 27 43 28 43 22z m669 -76 c21 -5 6 -16 -101 -78 -69 -40 -127 -72
-130 -72 -9 0 -1 61 8 70 5 4 40 28 78 53 72 48 70 47 145 27z m-886 -61 c-4
-4 -118 -72 -253 -150 -355 -205 -330 -192 -323 -173 3 9 135 101 292 205
l286 188 3 -31 c2 -17 0 -34 -5 -39z m-2514 57 c-2 -2 -53 -31 -114 -66 -60
-34 -126 -72 -145 -83 -31 -18 -28 -13 25 44 53 57 68 66 130 85 63 20 115 30
104 20z m3577 -42 c3 -8 -172 -113 -381 -228 -146 -81 -56 -19 292 202 65 41
84 46 89 26z m-2256 -63 c0 -6 -44 -35 -97 -67 -54 -31 -114 -66 -133 -77 -66
-39 -20 -4 97 74 121 80 133 86 133 70z m1156 -112 c-27 -16 -50 -28 -52 -27
-5 5 78 58 90 58 5 0 -12 -14 -38 -31z m1423 -3 c-5 -5 -193 -115 -284 -166
-27 -15 -88 -51 -135 -78 -47 -28 -87 -48 -90 -45 -3 3 0 7 5 10 9 3 268 171
415 268 55 37 67 41 79 29 8 -7 13 -16 10 -18z m-1494 -36 c-3 -5 -12 -10 -18
-10 -7 0 -6 4 3 10 19 12 23 12 15 0z m523 -12 c-21 -33 -108 -88 -138 -88
-20 0 -13 8 40 41 36 23 74 47 85 55 28 18 30 17 13 -8z m-1614 -1 c-3 -8 -19
-21 -37 -30 -18 -9 -57 -30 -87 -48 -30 -17 -51 -28 -47 -23 7 7 166 111 174
113 1 1 0 -5 -3 -12z m-269 -7 c-3 -5 -12 -10 -18 -10 -7 0 -6 4 3 10 19 12
23 12 15 0z m-1250 -69 c-21 -19 -287 -212 -290 -209 -2 2 -5 11 -7 22 -2 14
18 31 87 72 50 30 99 58 110 63 11 6 38 21 60 35 42 26 56 32 40 17z m4185
-58 c-1 -18 -21 -32 -145 -104 -228 -133 -232 -129 -15 15 141 93 160 104 160
89z m-1300 -21 c0 -5 -10 -14 -22 -20 -13 -6 -48 -25 -78 -43 -68 -39 -60 -30
22 27 65 44 78 50 78 36z m-2765 -18 c-19 -15 -81 -58 -317 -220 -58 -41 -109
-74 -112 -74 -6 0 0 49 6 55 2 2 59 36 128 76 69 39 166 96 215 124 94 55 114
65 80 39z m165 -68 c0 -7 -110 -76 -122 -76 -14 0 8 17 72 53 48 28 50 29 50
23z m3290 -16 c-35 -24 -54 -31 -30 -11 14 11 30 21 35 21 6 0 3 -5 -5 -10z
m590 -27 c0 -5 -12 -15 -28 -24 -15 -8 -49 -28 -77 -44 -64 -37 -54 -26 26 30
65 44 79 51 79 38z m-2985 -23 c-3 -6 -21 -17 -38 -26 -18 -9 -34 -20 -37 -24
-14 -19 -153 -101 -168 -98 -11 2 7 17 48 40 36 20 94 54 130 77 73 44 74 45
65 31z m405 -55 c0 -5 -156 -109 -199 -132 -13 -8 -29 -12 -34 -10 -6 2 43 35
109 74 134 80 124 75 124 68z m-1520 -24 c0 -14 -364 -251 -385 -251 -4 0 2
50 6 54 17 15 357 206 366 206 7 0 13 -4 13 -9z m4100 -50 c0 -26 -14 -36
-197 -142 -242 -140 -299 -171 -289 -162 13 14 471 332 479 332 4 1 7 -12 7
-28z m-3890 -85 c0 -3 -143 -97 -220 -144 l-25 -15 21 22 c12 13 66 49 120 81
106 63 104 62 104 56z m523 -41 c-29 -19 -60 -35 -70 -35 -9 0 -57 -23 -105
-51 -96 -55 -143 -64 -56 -11 184 114 215 130 248 131 l35 1 -52 -35z m-333 1
c0 -8 -132 -87 -137 -83 -2 3 26 23 64 46 73 43 73 43 73 37z m784 -15 c3 -4
-27 -30 -67 -56 -39 -26 -66 -41 -59 -34 6 7 12 21 12 31 0 16 40 45 85 59 11
4 21 7 22 8 1 1 4 -3 7 -8z m-278 -16 c-11 -8 -25 -15 -30 -15 -6 1 0 7 14 15
32 19 40 18 16 0z m994 -60 c0 -8 -362 -245 -374 -245 -17 0 1 12 187 132 199
127 187 120 187 113z m138 -68 c-17 -12 -76 -50 -288 -184 -107 -68 -163 -96
-109 -55 21 17 334 212 384 240 26 15 34 14 13 -1z m2082 -37 c0 -5 -5 -10
-11 -10 -5 0 -7 5 -4 10 3 6 8 10 11 10 2 0 4 -4 4 -10z m-4410 -83 c-53 -48
-100 -70 -96 -44 3 24 17 37 39 37 12 1 33 7 47 15 36 20 38 18 10 -8z m4046
-100 c-45 -33 -126 -78 -126 -70 0 7 138 92 150 92 3 0 -8 -10 -24 -22z
m-2346 -27 c-14 -11 -29 -20 -35 -20 -5 0 4 9 20 20 38 25 48 25 15 0z m-1705
-35 c-40 -35 -55 -39 -63 -17 -2 7 5 12 15 12 10 0 29 9 43 20 43 34 47 22 5
-15z m3145 11 c0 -9 -191 -128 -197 -122 -9 8 -11 7 97 70 101 58 100 58 100
52z m-362 -61 c-25 -20 -303 -174 -307 -170 -12 13 20 40 139 114 107 67 128
77 148 68 12 -6 21 -11 20 -12z m-983 -1 c-26 -20 -55 -36 -55 -30 0 5 63 46
70 46 3 -1 -4 -8 -15 -16z m2623 4 c-3 -7 -13 -15 -23 -16 -15 -4 -16 -2 -4
12 17 19 32 21 27 4z m-610 -33 c-4 -4 -169 -100 -235 -137 -100 -55 -53 -21
77 57 72 42 133 81 136 86 3 5 10 7 15 3 6 -3 9 -7 7 -9z m-954 -91 c4 -9 5
-18 4 -19 -17 -15 -379 -217 -383 -214 -2 3 -1 10 3 16 7 11 352 232 363 233
4 0 10 -7 13 -16z m1568 -34 c-2 -18 -12 -31 -23 -35 -10 -3 -29 -8 -41 -11
-17 -5 -11 4 22 35 25 22 45 41 46 41 0 0 -1 -13 -4 -30z m-391 -41 c-13 -11
-26 -17 -29 -14 -7 6 29 34 43 34 6 0 -1 -9 -14 -20z m-131 -47 c0 -34 -25
-53 -99 -72 -40 -10 -70 -16 -67 -13 11 11 151 101 159 102 4 1 7 -7 7 -17z
m199 -71 c-58 -54 -91 -66 -76 -28 5 12 121 86 136 87 2 0 -25 -27 -60 -59z
m-3441 4 c-20 -14 -40 -25 -45 -25 -11 0 60 49 72 50 5 0 -7 -11 -27 -25z
m2212 15 c0 -11 -31 -32 -172 -115 -54 -31 -103 -55 -110 -53 -6 2 4 12 23 21
19 10 83 49 144 87 60 39 111 70 112 70 2 0 3 -4 3 -10z m1525 -59 c-3 -6 -16
-16 -28 -22 -21 -11 -21 -10 2 15 23 25 40 29 26 7z m-3897 -58 c-3 -8 -153
-111 -223 -152 -37 -22 -35 -19 20 33 33 31 91 75 130 96 67 37 81 42 73 23z
m3402 -33 c0 -12 -31 -36 -102 -76 -57 -33 -107 -61 -113 -63 -5 -2 -21 -11
-35 -21 -41 -27 -126 -74 -115 -63 6 6 60 46 120 89 240 172 245 175 245 134z
m-271 6 c-2 -1 -69 -40 -149 -86 -80 -46 -155 -90 -167 -98 -13 -8 -23 -12
-23 -10 0 10 253 181 279 188 27 9 68 13 60 6z m491 -61 c-7 -8 -17 -15 -23
-15 -6 0 -2 7 9 15 25 19 30 19 14 0z m-110 -84 c0 -8 -15 -19 -100 -70 -33
-20 -15 -1 40 43 47 36 60 42 60 27z m-3970 -75 c0 -2 -8 -10 -17 -17 -16 -13
-17 -12 -4 4 13 16 21 21 21 13z m44 -161 c-10 -8 -23 -15 -28 -15 -6 0 -1 7
10 15 10 8 23 15 28 15 6 0 1 -7 -10 -15z m-41 -172 c8 -7 -11 -33 -24 -33 -5
0 -9 9 -9 20 0 19 20 27 33 13z m387 -33 c-19 -16 -42 -29 -50 -30 -8 0 5 14
30 30 58 37 64 37 20 0z m3695 -13 c-16 -11 -292 -170 -538 -310 -17 -11 -47
-28 -64 -39 -18 -11 -33 -18 -33 -15 0 11 420 277 437 277 10 0 28 6 39 14 29
20 157 85 169 86 5 0 1 -6 -10 -13z m-3946 -10 c-57 -40 -170 -104 -167 -95 5
15 160 110 167 103 2 -3 2 -6 0 -8z m582 -47 c-13 -11 -28 -20 -35 -20 -6 0 3
9 19 20 38 25 47 25 16 0z m-418 2 c3 -4 -72 -56 -166 -115 -156 -98 -172
-106 -175 -86 -5 29 3 35 163 128 132 76 168 91 178 73z m2727 -36 c0 -2 -12
-11 -27 -20 l-28 -17 24 20 c23 21 31 25 31 17z m1247 -32 c0 -16 -35 -41
-127 -92 -27 -15 -112 -64 -190 -109 -77 -46 -143 -83 -147 -83 -11 0 441 299
453 299 6 1 11 -6 11 -15z m-3664 -25 c-16 -16 -657 -418 -661 -415 -7 7 -9
54 -3 63 3 5 87 55 186 112 99 58 205 119 235 137 163 96 214 121 232 116 11
-2 16 -8 11 -13z m190 -72 c-26 -17 -70 -45 -98 -63 -139 -88 -673 -422 -691
-432 -18 -10 -23 -8 -33 14 -6 14 -11 29 -11 34 0 7 110 74 265 160 28 15 166
95 308 177 198 115 264 149 284 145 23 -4 22 -6 -24 -35z m2647 35 c0 -4 -26
-22 -57 -40 -32 -17 -83 -46 -113 -63 -79 -46 -50 -21 59 50 91 59 111 69 111
53z m-2375 -51 c-6 -5 -156 -100 -335 -212 -179 -111 -370 -231 -425 -265
-200 -125 -204 -127 -231 -109 -13 8 -24 19 -24 23 0 6 239 147 419 248 31 17
169 97 306 177 138 80 261 146 275 146 14 1 20 -3 15 -8z m3203 -39 c1 -29 -1
-30 -108 -90 -25 -14 -97 -55 -161 -92 -64 -37 -127 -73 -140 -79 -23 -11 -23
-11 -4 3 11 8 108 76 215 150 107 74 195 134 196 135 1 1 1 -11 2 -27z m-1758
-36 c-8 -7 -103 -69 -210 -137 -107 -68 -230 -146 -272 -174 -43 -27 -113 -72
-155 -99 -93 -60 -211 -135 -435 -280 l-167 -108 -53 7 c-49 7 -99 24 -71 25
7 0 50 22 95 49 46 26 157 91 248 143 91 53 352 203 580 335 439 254 477 274
440 239z m-625 -5 c-6 -5 -257 -165 -560 -356 -549 -345 -550 -346 -595 -340
-24 3 -48 9 -52 13 -4 4 27 28 69 52 75 42 409 235 868 500 121 70 227 130
235 133 25 9 45 8 35 -2z m295 1 c0 -5 -74 -55 -165 -113 -92 -57 -257 -161
-368 -232 -348 -219 -525 -331 -588 -370 -62 -38 -73 -40 -142 -20 -12 3 20
26 105 75 230 132 403 231 508 293 58 34 125 73 150 87 25 14 61 34 80 45 19
11 64 37 100 58 82 47 103 59 220 128 107 63 100 60 100 49z m1030 -7 c0 -2
-10 -9 -22 -15 -22 -11 -22 -10 -4 4 21 17 26 19 26 11z m-326 -104 c-32 -21
-134 -88 -225 -149 -91 -60 -170 -111 -175 -113 -5 -2 -88 -56 -184 -120 -96
-64 -256 -169 -354 -233 l-180 -118 -70 6 c-39 3 -73 5 -76 6 -3 0 24 17 60
37 36 20 188 108 338 195 151 87 278 158 283 158 5 0 9 5 9 10 0 6 4 10 9 10
5 0 69 35 143 78 74 43 141 81 149 85 8 3 82 47 164 96 155 93 212 120 109 52z
m-1657 3 c-3 -3 -34 -23 -69 -44 -166 -99 -624 -380 -635 -389 -7 -6 -15 -11
-18 -11 -4 0 -26 -13 -50 -30 -24 -16 -55 -30 -70 -30 -31 0 -26 13 13 33 15
8 99 56 186 106 88 51 234 136 325 189 91 52 200 115 241 138 72 42 90 51 77
38z m3043 -17 c0 -19 -19 -34 -102 -83 -57 -32 -110 -63 -120 -69 -44 -26
-101 -53 -82 -40 11 8 81 60 155 114 74 55 137 100 142 100 4 1 7 -9 7 -22z
m-3420 -72 c0 -2 -10 -9 -22 -15 -22 -11 -22 -10 -4 4 21 17 26 19 26 11z
m-55 -33 c-24 -21 -556 -342 -566 -342 -29 0 7 27 134 99 78 45 153 88 167 96
107 63 266 155 270 155 2 0 0 -4 -5 -8z m2160 -33 c-4 -6 -14 -13 -24 -17 -9
-4 -83 -52 -166 -106 -82 -55 -276 -183 -430 -285 -289 -191 -292 -193 -375
-181 -34 5 -33 6 85 73 66 37 135 77 154 88 43 25 282 164 339 196 23 13 93
53 154 89 61 35 112 64 114 64 2 0 27 15 57 33 105 64 102 63 92 46z m1305
-24 c-6 -8 -33 -26 -58 -40 -52 -29 -48 -22 13 24 43 32 65 41 45 16z m-2095
-94 c-8 -7 -603 -380 -680 -426 -11 -7 -31 -9 -44 -6 -23 6 40 46 329 208 19
11 116 68 215 126 175 103 199 116 180 98z m-1255 -45 c0 -2 -51 -34 -112 -71
-62 -36 -146 -87 -186 -111 -40 -25 -77 -44 -83 -42 -9 3 20 21 190 119 26 15
78 45 116 67 74 44 75 44 75 38z m2175 -35 c-6 -5 -130 -88 -276 -184 -146
-97 -273 -183 -282 -192 -11 -10 -39 -17 -78 -20 -34 -2 -60 -2 -58 0 2 2 150
87 329 190 179 103 334 194 345 201 22 16 34 19 20 5z m250 -9 c-16 -14 -101
-73 -270 -187 -88 -59 -179 -124 -203 -143 -38 -30 -52 -35 -110 -39 -41 -3
-63 -1 -57 5 6 5 75 46 155 92 80 46 222 127 315 181 163 94 190 109 170 91z
m169 -75 c-49 -35 -145 -105 -213 -155 -69 -51 -134 -92 -145 -93 -12 0 -28
-2 -36 -4 -46 -11 -94 -16 -88 -10 6 6 287 170 408 238 30 17 75 43 100 58 80
48 66 31 -26 -34z m216 -21 c0 -2 -42 -35 -92 -73 -62 -47 -111 -75 -148 -86
-30 -9 -55 -15 -56 -14 -2 2 281 171 294 176 1 1 2 -1 2 -3z m-1480 -286 c0
-5 -5 -10 -11 -10 -5 0 -7 5 -4 10 3 6 8 10 11 10 2 0 4 -4 4 -10z"/>
</g>
</svg>
