<?xml version="1.0" encoding="UTF-8"?>
<svg version="1.1" xmlns="http://www.w3.org/2000/svg" width="969" height="156">
<path d="M0 0 C3.5470608 0.81855249 4.49988706 2.55585924 6.4375 5.5625 C8.81496972 9.96081898 8.74847017 13.66471987 8.4375 18.5625 C7.4375 21.0625 7.4375 21.0625 6.4375 22.5625 C7.0975 23.2225 7.7575 23.8825 8.4375 24.5625 C8.6328125 27.8203125 8.6328125 27.8203125 8.5625 31.6875 C8.54445312 32.96882813 8.52640625 34.25015625 8.5078125 35.5703125 C8.48460937 36.55773438 8.46140625 37.54515625 8.4375 38.5625 C9.8915625 38.315 9.8915625 38.315 11.375 38.0625 C15.73237763 37.42853727 20.04380704 37.4728328 24.4375 37.5625 C24.39625 36.36625 24.355 35.17 24.3125 33.9375 C24.29153117 30.95992565 24.52746798 29.31258895 25.5625 26.4375 C26.75944905 23.53543541 26.75944905 23.53543541 25.375 20.625 C24.4375 17.5625 24.4375 17.5625 25.5625 14 C28.35827804 8.87440693 30.99512947 5.01156674 36.4375 2.5625 C38.5 2.4375 38.5 2.4375 40.4375 3.5625 C44.53989733 9.77470168 45.70536265 14.06234589 45.4375 21.5625 C45.11266582 22.89792939 44.7824145 24.23211551 44.4375 25.5625 C44.9325 26.5525 44.9325 26.5525 45.4375 27.5625 C45.57427734 30.89986713 45.48033944 34.2210233 45.4375 37.5625 C51.0475 37.5625 56.6575 37.5625 62.4375 37.5625 C62.1075 36.9025 61.7775 36.2425 61.4375 35.5625 C61.13649901 30.44548319 62.00083013 26.44717757 63.4375 21.5625 C62.9425 20.5725 62.9425 20.5725 62.4375 19.5625 C61.89038223 13.10651029 62.67167112 9.85501627 66.4375 4.5625 C68.965919 2.034081 70.51051115 0.76598536 74 0 C77.5470608 0.81855249 78.49988706 2.55585924 80.4375 5.5625 C82.86497016 9.93194628 83.06118528 14.66473615 82.4375 19.5625 C81.4475 21.0475 81.4475 21.0475 80.4375 22.5625 C80.93894531 23.24699219 81.44039063 23.93148438 81.95703125 24.63671875 C83.79052545 28.2601677 83.5696874 30.37281342 83.125 34.375 C83.00511719 35.53644531 82.88523437 36.69789062 82.76171875 37.89453125 C82.60123047 39.21517578 82.60123047 39.21517578 82.4375 40.5625 C83.571875 40.73265625 84.70625 40.9028125 85.875 41.078125 C105.28773915 44.13638468 105.28773915 44.13638468 111.39868164 51.7399292 C113.3717457 55.2016017 113.10829134 58.80354161 113.03125 62.6953125 C113.03129028 63.56840057 113.03133057 64.44148865 113.03137207 65.34103394 C113.02602626 67.18511159 113.00848366 69.02918938 112.97949219 70.87304688 C112.93793592 73.65828296 112.93840551 76.44107093 112.9453125 79.2265625 C112.91255583 87.83157963 112.52444867 95.53240146 110.06103516 103.83447266 C108.89591849 108.9319721 109.47049693 114.01495681 109.875 119.1875 C111.29013475 138.32105741 111.29013475 138.32105741 106.1875 145 C100.25260376 150.53024422 93.40672427 151.65124161 85.6875 153.1875 C84.65367188 153.4040625 83.61984375 153.620625 82.5546875 153.84375 C72.27359941 155.94140273 62.27302452 156.72207469 51.7890625 156.765625 C50.15014542 156.77417511 50.15014542 156.77417511 48.4781189 156.78289795 C46.17373608 156.79229547 43.86934013 156.79886089 41.56494141 156.80273438 C38.10684564 156.81237635 34.64936144 156.84342501 31.19140625 156.875 C-16.47401398 157.10221433 -16.47401398 157.10221433 -30.5625 145.5625 C-34.06925403 140.23596303 -34.00315072 135.42302224 -34.00390625 129.265625 C-34.01711411 128.27681335 -34.03032196 127.28800171 -34.04393005 126.26922607 C-34.08469458 123.11695563 -34.10644186 119.96497357 -34.125 116.8125 C-34.14891256 113.6743994 -34.17727401 110.53656532 -34.21678162 107.39862061 C-34.24082111 105.45083873 -34.2559364 103.5029178 -34.26039124 101.55499268 C-34.32196608 96.10974286 -34.93899064 91.12209744 -36.10810852 85.8059082 C-37.13291044 80.74628641 -36.88978678 75.57738488 -36.875 70.4375 C-36.89111328 69.30957031 -36.90722656 68.18164062 -36.92382812 67.01953125 C-36.9276259 60.52533871 -36.66537405 55.33821225 -33.5625 49.5625 C-27.43953482 44.71745097 -20.24613524 42.81862117 -12.5625 42.5625 C-12.61470703 40.89960937 -12.61470703 40.89960937 -12.66796875 39.203125 C-12.69611349 37.73959852 -12.72341292 36.27605561 -12.75 34.8125 C-12.77513672 34.08289062 -12.80027344 33.35328125 -12.82617188 32.6015625 C-12.87231636 29.21763396 -12.81574128 26.98391443 -11.05078125 24.046875 C-10.55964844 23.55703125 -10.06851562 23.0671875 -9.5625 22.5625 C-10.078125 21.881875 -10.59375 21.20125 -11.125 20.5 C-13.01900872 16.62963435 -12.65057032 14.6971672 -11.5625 10.5625 C-8.85518075 5.63131137 -5.72726923 1.25720544 0 0 Z M14.4375 148.5625 C14.1075 149.2225 13.7775 149.8825 13.4375 150.5625 C14.4275 150.2325 15.4175 149.9025 16.4375 149.5625 C15.7775 149.2325 15.1175 148.9025 14.4375 148.5625 Z M27.4375 151.5625 C26.7775 152.2225 26.1175 152.8825 25.4375 153.5625 C26.7575 153.2325 28.0775 152.9025 29.4375 152.5625 C28.7775 152.2325 28.1175 151.9025 27.4375 151.5625 Z " fill="#DE4D79" transform="translate(41.5625,-0.5625)"/>
<path d="M0 0 C3.5470608 0.81855249 4.49988706 2.55585924 6.4375 5.5625 C8.81496972 9.96081898 8.74847017 13.66471987 8.4375 18.5625 C7.4375 21.0625 7.4375 21.0625 6.4375 22.5625 C7.0975 23.2225 7.7575 23.8825 8.4375 24.5625 C8.6328125 27.8203125 8.6328125 27.8203125 8.5625 31.6875 C8.54445312 32.96882813 8.52640625 34.25015625 8.5078125 35.5703125 C8.48460937 36.55773438 8.46140625 37.54515625 8.4375 38.5625 C9.8915625 38.315 9.8915625 38.315 11.375 38.0625 C15.73237763 37.42853727 20.04380704 37.4728328 24.4375 37.5625 C24.39625 36.36625 24.355 35.17 24.3125 33.9375 C24.29153117 30.95992565 24.52746798 29.31258895 25.5625 26.4375 C26.75944905 23.53543541 26.75944905 23.53543541 25.375 20.625 C24.4375 17.5625 24.4375 17.5625 25.5625 14 C28.35827804 8.87440693 30.99512947 5.01156674 36.4375 2.5625 C38.5 2.4375 38.5 2.4375 40.4375 3.5625 C44.53989733 9.77470168 45.70536265 14.06234589 45.4375 21.5625 C45.11266582 22.89792939 44.7824145 24.23211551 44.4375 25.5625 C44.9325 26.5525 44.9325 26.5525 45.4375 27.5625 C45.57427734 30.89986713 45.48033944 34.2210233 45.4375 37.5625 C51.0475 37.5625 56.6575 37.5625 62.4375 37.5625 C62.1075 36.9025 61.7775 36.2425 61.4375 35.5625 C61.13649901 30.44548319 62.00083013 26.44717757 63.4375 21.5625 C62.9425 20.5725 62.9425 20.5725 62.4375 19.5625 C61.89038223 13.10651029 62.67167112 9.85501627 66.4375 4.5625 C68.965919 2.034081 70.51051115 0.76598536 74 0 C77.5470608 0.81855249 78.49988706 2.55585924 80.4375 5.5625 C82.86497016 9.93194628 83.06118528 14.66473615 82.4375 19.5625 C81.4475 21.0475 81.4475 21.0475 80.4375 22.5625 C80.93894531 23.24699219 81.44039063 23.93148438 81.95703125 24.63671875 C83.79052545 28.2601677 83.5696874 30.37281342 83.125 34.375 C83.00511719 35.53644531 82.88523437 36.69789062 82.76171875 37.89453125 C82.60123047 39.21517578 82.60123047 39.21517578 82.4375 40.5625 C83.571875 40.73265625 84.70625 40.9028125 85.875 41.078125 C105.28773915 44.13638468 105.28773915 44.13638468 111.39868164 51.7399292 C113.3717457 55.2016017 113.10829134 58.80354161 113.03125 62.6953125 C113.03129028 63.56840057 113.03133057 64.44148865 113.03137207 65.34103394 C113.02602626 67.18511159 113.00848366 69.02918938 112.97949219 70.87304688 C112.93793592 73.65828296 112.93840551 76.44107093 112.9453125 79.2265625 C112.91255583 87.83157963 112.52444867 95.53240146 110.06103516 103.83447266 C108.89591849 108.9319721 109.47049693 114.01495681 109.875 119.1875 C111.29013475 138.32105741 111.29013475 138.32105741 106.1875 145 C100.25260376 150.53024422 93.40672427 151.65124161 85.6875 153.1875 C84.65367188 153.4040625 83.61984375 153.620625 82.5546875 153.84375 C72.27359941 155.94140273 62.27302452 156.72207469 51.7890625 156.765625 C50.15014542 156.77417511 50.15014542 156.77417511 48.4781189 156.78289795 C46.17373608 156.79229547 43.86934013 156.79886089 41.56494141 156.80273438 C38.10684564 156.81237635 34.64936144 156.84342501 31.19140625 156.875 C-16.47401398 157.10221433 -16.47401398 157.10221433 -30.5625 145.5625 C-34.06925403 140.23596303 -34.00315072 135.42302224 -34.00390625 129.265625 C-34.01711411 128.27681335 -34.03032196 127.28800171 -34.04393005 126.26922607 C-34.08469458 123.11695563 -34.10644186 119.96497357 -34.125 116.8125 C-34.14891256 113.6743994 -34.17727401 110.53656532 -34.21678162 107.39862061 C-34.24082111 105.45083873 -34.2559364 103.5029178 -34.26039124 101.55499268 C-34.32196608 96.10974286 -34.93899064 91.12209744 -36.10810852 85.8059082 C-37.13291044 80.74628641 -36.88978678 75.57738488 -36.875 70.4375 C-36.89111328 69.30957031 -36.90722656 68.18164062 -36.92382812 67.01953125 C-36.9276259 60.52533871 -36.66537405 55.33821225 -33.5625 49.5625 C-27.43953482 44.71745097 -20.24613524 42.81862117 -12.5625 42.5625 C-12.61470703 40.89960937 -12.61470703 40.89960937 -12.66796875 39.203125 C-12.69611349 37.73959852 -12.72341292 36.27605561 -12.75 34.8125 C-12.77513672 34.08289062 -12.80027344 33.35328125 -12.82617188 32.6015625 C-12.87231636 29.21763396 -12.81574128 26.98391443 -11.05078125 24.046875 C-10.55964844 23.55703125 -10.06851562 23.0671875 -9.5625 22.5625 C-10.078125 21.881875 -10.59375 21.20125 -11.125 20.5 C-13.01900872 16.62963435 -12.65057032 14.6971672 -11.5625 10.5625 C-8.85518075 5.63131137 -5.72726923 1.25720544 0 0 Z M8.4375 41.5625 C8.34662109 42.82707031 8.34662109 42.82707031 8.25390625 44.1171875 C8.17011719 45.21289062 8.08632813 46.30859375 8 47.4375 C7.91878906 48.52804688 7.83757813 49.61859375 7.75390625 50.7421875 C7.4375 53.5625 7.4375 53.5625 6.4375 55.5625 C2.17572241 57.95974989 -2.78019345 58.39537361 -7.5625 57.5625 C-9.29296875 56.3984375 -9.29296875 56.3984375 -10.5625 54.5625 C-11.07421875 51.86328125 -11.07421875 51.86328125 -11.25 48.875 C-11.31574219 47.88113281 -11.38148437 46.88726562 -11.44921875 45.86328125 C-11.48660156 45.10402344 -11.52398438 44.34476563 -11.5625 43.5625 C-19.54806145 45.2681539 -25.68640284 46.68640284 -31.5625 52.5625 C-32.18169369 57.07465229 -32.21726827 61.63842539 -32.375 66.1875 C-32.43880859 67.44691406 -32.50261719 68.70632812 -32.56835938 70.00390625 C-32.82791319 76.97164677 -32.74186162 82.29483246 -29.5625 88.5625 C-27.71749045 90.77990981 -27.71749045 90.77990981 -25 91.0625 C-24.195625 91.2275 -23.39125 91.3925 -22.5625 91.5625 C-22.2325 92.2225 -21.9025 92.8825 -21.5625 93.5625 C-19.67485097 94.24722665 -19.67485097 94.24722665 -17.5 94.6875 C-16.76652344 94.85507813 -16.03304688 95.02265625 -15.27734375 95.1953125 C-14.42849609 95.37707031 -14.42849609 95.37707031 -13.5625 95.5625 C-13.5625 96.2225 -13.5625 96.8825 -13.5625 97.5625 C-18.82602623 96.58777292 -23.04481479 95.57429014 -27.5625 92.5625 C-28.2225 92.5625 -28.8825 92.5625 -29.5625 92.5625 C-30.3044031 104.68561498 -30.3044031 104.68561498 -25.5625 115.5625 C-16.01977176 122.45930425 -0.11468619 122.47314306 11.375 123.75 C12.14597015 123.83588379 12.91694031 123.92176758 13.71127319 124.01025391 C59.81865128 129.06336035 59.81865128 129.06336035 102.25 114.125 C104.73507006 111.69789349 104.73507006 111.69789349 104.8125 108.25 C104.68875 107.363125 104.565 106.47625 104.4375 105.5625 C101.1375 104.9025 97.8375 104.2425 94.4375 103.5625 C94.0353125 102.1084375 94.0353125 102.1084375 93.625 100.625 C93.233125 99.614375 92.84125 98.60375 92.4375 97.5625 C90.9525 97.0675 90.9525 97.0675 89.4375 96.5625 C89.4375 95.9025 89.4375 95.2425 89.4375 94.5625 C90.0975 94.5625 90.7575 94.5625 91.4375 94.5625 C91.85559201 91.73098027 91.85559201 91.73098027 91.4375 88.5625 C89.05907423 86.15843616 89.05907423 86.15843616 86.4375 84.5625 C88.75 84.25 88.75 84.25 91.4375 84.5625 C94.92156795 88.30464706 95.20862468 93.16174775 95.91015625 98.0390625 C96.32209325 100.79322075 96.32209325 100.79322075 98.4375 103.5625 C101.39470628 104.22930368 101.39470628 104.22930368 104.4375 103.5625 C110.24895381 97.14986131 108.68569523 85.60975291 108.4375 77.5625 C108.21844282 74.831839 107.94363026 72.11617905 107.6328125 69.39453125 C107.40848043 66.14171617 107.62824989 63.00385697 107.8125 59.75 C107.8875523 55.35299987 107.8875523 55.35299987 106.09375 51.4765625 C99.44349848 45.49716969 90.95042769 44.85734661 82.4375 43.5625 C82.41171875 44.23796875 82.3859375 44.9134375 82.359375 45.609375 C82.11153472 49.50722665 81.88942245 52.69973896 80.0625 56.1875 C75.76437654 58.438898 71.19089897 58.02274974 66.4375 57.5625 C65.7775 57.2325 65.1175 56.9025 64.4375 56.5625 C63.8046875 54.19921875 63.8046875 54.19921875 63.3125 51.25 C63.14492187 50.28449219 62.97734375 49.31898437 62.8046875 48.32421875 C62.4375 45.5625 62.4375 45.5625 62.4375 41.5625 C59.37216836 40.02983418 56.16995728 40.45973529 52.8125 40.5 C51.75289062 40.50676758 51.75289062 40.50676758 50.671875 40.51367188 C48.92704725 40.52546125 47.182263 40.54339676 45.4375 40.5625 C45.37691406 41.51511719 45.31632812 42.46773437 45.25390625 43.44921875 C45.12822266 45.33060547 45.12822266 45.33060547 45 47.25 C44.87818359 49.11205078 44.87818359 49.11205078 44.75390625 51.01171875 C44.49258683 53.94430337 44.08951621 56.69691617 43.4375 59.5625 C40.35316208 60.4641858 37.58408179 60.69718049 34.375 60.6875 C33.08916016 60.69136719 33.08916016 60.69136719 31.77734375 60.6953125 C29.4375 60.5625 29.4375 60.5625 26.4375 59.5625 C26.1075 53.2925 25.7775 47.0225 25.4375 40.5625 C19.62060013 40.48281644 14.16684145 40.56609279 8.4375 41.5625 Z M14.4375 148.5625 C14.1075 149.2225 13.7775 149.8825 13.4375 150.5625 C14.4275 150.2325 15.4175 149.9025 16.4375 149.5625 C15.7775 149.2325 15.1175 148.9025 14.4375 148.5625 Z M27.4375 151.5625 C26.7775 152.2225 26.1175 152.8825 25.4375 153.5625 C26.7575 153.2325 28.0775 152.9025 29.4375 152.5625 C28.7775 152.2325 28.1175 151.9025 27.4375 151.5625 Z " fill="#2F2B2A" transform="translate(41.5625,-0.5625)"/>
<path d="M0 0 C2 0.8125 2 0.8125 3.125 2.58984375 C5.61310943 8.910086 2.85623248 15.72964125 0.4375 21.6875 C-4.26850859 32.01830934 -10.44402635 40.61422947 -18.21484375 48.8515625 C-21.17688164 52.10526714 -21.11265255 54.12438109 -21.0625 58.4375 C-21.05347656 59.44039062 -21.04445313 60.44328125 -21.03515625 61.4765625 C-21.02355469 62.24742188 -21.01195312 63.01828125 -21 63.8125 C-17.97157537 65.20786072 -17.97157537 65.20786072 -15.125 63.4375 C-9.60496884 59.44777451 -7.32390998 52.78800928 -5 46.625 C-3.08701398 41.67283459 -0.90987226 37.18185165 4.125 34.8125 C6 34.8125 6 34.8125 9 36.8125 C8.41624891 41.19874083 6.7475164 44.21882999 4.5 48 C1.32748166 53.69625992 -0.10281064 58.30605511 0 64.8125 C5.37346162 63.90174379 8.60492097 63.18922462 11.99609375 58.578125 C13.04750319 56.72895354 13.71139107 54.95614273 14.375 52.9375 C17.11949878 44.9186572 23.61516039 39.5530818 31 35.8125 C33.94229921 34.8317336 35.9908784 34.64761872 39.0625 34.625 C39.94035156 34.61082031 40.81820312 34.59664062 41.72265625 34.58203125 C44 34.8125 44 34.8125 46 36.8125 C45.625 39.4375 45.625 39.4375 45 41.8125 C45.66 41.8125 46.32 41.8125 47 41.8125 C46.63379732 49.92388929 44.58459767 57.14285667 42 64.8125 C43.281921 63.95382608 44.550085 63.07460243 45.8125 62.1875 C46.52019531 61.70023438 47.22789062 61.21296875 47.95703125 60.7109375 C52.43189067 56.55265513 53.6262308 50.90982782 55.125 45.1875 C59.16471477 30.7908472 65.94333511 9.51694326 79 0.8125 C81.5625 0.5 81.5625 0.5 84 0.8125 C86.53797769 4.61946654 86.67855044 7.41605864 86 11.8125 C82.15485137 24.13757462 75.2596927 34.89971163 65.37109375 43.17578125 C63.54205864 45.35915934 63.28343344 47.21062502 62.8125 50 C62.57466797 51.35158203 62.57466797 51.35158203 62.33203125 52.73046875 C62.16767578 53.76107422 62.16767578 53.76107422 62 54.8125 C62.37511719 54.06484375 62.75023437 53.3171875 63.13671875 52.546875 C66.27575992 46.50599981 68.72978471 41.94760765 75 38.8125 C79.49235451 38.20542507 82.86473532 37.95412914 86.5625 40.75 C90.09676243 48.2795156 87.5663047 55.01871506 84.875 62.50390625 C84.58625 63.26574219 84.2975 64.02757813 84 64.8125 C89.42720395 64.01054203 92.35667284 61.81834728 96 57.8125 C98.86471116 52.49232213 100.35509386 46.6105025 102 40.8125 C101.01 40.4825 100.02 40.1525 99 39.8125 C99 38.8225 99 37.8325 99 36.8125 C99.74378906 36.80347656 100.48757813 36.79445312 101.25390625 36.78515625 C104.35741181 36.01047659 104.35741181 36.01047659 106.02734375 32.49609375 C106.67923292 31.087652 107.31523426 29.67177812 107.9375 28.25 C108.62467295 26.78775046 109.31735192 25.32807525 110.015625 23.87109375 C110.35142578 23.16968262 110.68722656 22.46827148 111.03320312 21.74560547 C112.81795548 18.17700214 114.81784808 14.2993231 118 11.8125 C120.61328125 11.5625 120.61328125 11.5625 123 11.8125 C123.33 12.1425 123.66 12.4725 124 12.8125 C123.7437783 19.1684512 121.25210463 23.42930728 117.9375 28.75 C117.22883789 29.91885742 117.22883789 29.91885742 116.50585938 31.11132812 C115.34773766 33.01813458 114.17530093 34.91623407 113 36.8125 C118.28 36.8125 123.56 36.8125 129 36.8125 C129 38.1325 129 39.4525 129 40.8125 C122.62694402 41.55757544 116.41688675 41.91599817 110 41.8125 C107.41283102 49.6356062 106.61249961 56.5888806 107 64.8125 C110.28300468 65.87083703 111.00553638 65.81062159 114.5 64.625 C119.01086947 62.28901403 121.25198398 60.44453495 123.375 55.8125 C125 52.8125 125 52.8125 127.8125 51 C134.26207642 46.5738201 137.37523351 40.02891667 139.1640625 32.5625 C140 30.8125 140 30.8125 142.0859375 30.0625 C142.71757813 29.98 143.34921875 29.8975 144 29.8125 C145.93361777 32.90628843 146.22167752 35.68266826 146.5859375 39.2578125 C147.32609076 43.82441847 148.74742637 48.21192117 150.0625 52.640625 C150.76709548 55.02450639 151.425585 57.3951702 152 59.8125 C155.67099501 57.1336658 157.72620052 54.71044196 160 50.8125 C160.66 50.8125 161.32 50.8125 162 50.8125 C161.61104749 56.25783513 159.7851047 58.93936961 156 62.8125 C153.28509275 64.56920469 152.28565953 64.8125 149 64.8125 C148.7525 65.410625 148.505 66.00875 148.25 66.625 C146.71177759 69.31688922 145.74832178 70.33263443 143 71.8125 C138.36648026 72.98883931 134.81231741 73.03888354 130.1875 71.75 C126.39556079 69.44509578 125.12391408 67.63554534 123 63.8125 C122.18595703 64.55306641 122.18595703 64.55306641 121.35546875 65.30859375 C120.64003906 65.94925781 119.92460938 66.58992188 119.1875 67.25 C118.12595703 68.20712891 118.12595703 68.20712891 117.04296875 69.18359375 C113.39134364 72.09511893 109.72478352 72.20801906 105.2265625 72.1640625 C103 71.8125 103 71.8125 100 69.5625 C98.24018213 67.14275043 97.32532666 65.74043994 97 62.8125 C95.88625 63.988125 95.88625 63.988125 94.75 65.1875 C91.12158391 68.65098808 88.96276319 69.90312725 84 70.1875 C81.13849144 70.08587633 80.00934338 69.81774141 77.4375 68.375 C75.21680642 64.41637231 76.24293798 61.14840064 77 56.8125 C77.19867854 55.12627957 77.38669861 53.43875883 77.5625 51.75 C77.7790625 49.8009375 77.7790625 49.8009375 78 47.8125 C77.01 47.4825 76.02 47.1525 75 46.8125 C70.61937879 50.70638552 68.43138881 54.53083143 66 59.8125 C65.11054661 61.62813936 64.21460781 63.44061471 63.3125 65.25 C62.89613281 66.09433594 62.47976563 66.93867187 62.05078125 67.80859375 C61 69.8125 61 69.8125 60 70.8125 C57.5625 71.0625 57.5625 71.0625 55 70.8125 C53.0549 67.89485 52.54723683 66.18712715 52 62.8125 C51.39671875 63.30621094 50.7934375 63.79992187 50.171875 64.30859375 C49.37265625 64.94925781 48.5734375 65.58992188 47.75 66.25 C46.96109375 66.88808594 46.1721875 67.52617188 45.359375 68.18359375 C43.10109032 69.74270751 41.59797182 70.17308787 39 70.8125 C38.25976679 72.78645523 37.61238899 74.79521862 37 76.8125 C34.06203801 82.9060508 30.68645404 89.19630681 25.0625 93.1875 C22.17707113 94.06187239 19.99854769 94.18731846 17 93.8125 C14.5625 92.3125 14.5625 92.3125 13 89.8125 C12.71730089 85.50133861 12.83138567 83.24080641 15.58203125 79.87890625 C19.79627452 76.01377189 26.03204009 70.8125 32 70.8125 C32.33 68.5025 32.66 66.1925 33 63.8125 C32.21625 64.451875 31.4325 65.09125 30.625 65.75 C26.95542636 68.63323643 24.75819529 69.13904752 20.04296875 69.11328125 C16.91901903 68.65334984 15.18000297 66.99250297 13 64.8125 C12.030625 65.616875 11.06125 66.42125 10.0625 67.25 C5.94914537 70.17023148 2.05174953 71.31295369 -3 70.8125 C-6.0625 69.0625 -6.0625 69.0625 -8 66.8125 C-8 65.8225 -8 64.8325 -8 63.8125 C-8.556875 64.23402344 -9.11375 64.65554687 -9.6875 65.08984375 C-14.83703541 68.78672306 -18.55792185 71.13460391 -25 70.8125 C-28.58772417 68.14079051 -30.12219059 66.12762624 -31 61.8125 C-31.49628906 62.28300781 -31.99257813 62.75351563 -32.50390625 63.23828125 C-39.03406783 69.2232301 -44.58501583 72.45704287 -53.62890625 72.16796875 C-57.95278313 71.51974339 -60.72101239 69.44030242 -63.375 66.0625 C-65.4860433 58.46274411 -63.4047858 53.41609495 -59.77734375 46.65625 C-55.36569153 39.59760645 -50.07182995 35.15808754 -41.9375 33 C-38.62907712 32.78882407 -36.88499852 33.20972305 -34 34.8125 C-31.74414298 38.19628553 -31.75863541 39.81832681 -32.421875 43.76171875 C-33.81753319 48.71253327 -36.57471131 50.97073199 -40.82421875 53.48046875 C-45.50081575 55.90217519 -49.76365177 57.99432059 -55 58.8125 C-54.72459296 62.63063447 -54.72459296 62.63063447 -53 65.8125 C-47.17027314 66.42615546 -43.93568818 65.69730812 -39.0546875 62.4921875 C-32.5147102 57.14581822 -30.09309748 53.42868978 -27.875 45.375 C-25.33196269 37.03327465 -22.09467366 29.35744216 -18.0625 21.625 C-17.58474121 20.69437744 -17.10698242 19.76375488 -16.61474609 18.80493164 C-6.25573919 -0.58647555 -6.25573919 -0.58647555 0 0 Z M-3 10.8125 C-7.64503119 17.0462665 -11.16517723 23.88186555 -14.5 30.875 C-14.86230713 31.62515381 -15.22461426 32.37530762 -15.59790039 33.14819336 C-16.4641817 35.00711965 -17.24051053 36.90744725 -18 38.8125 C-17.67 39.4725 -17.34 40.1325 -17 40.8125 C-9.93575669 31.86565378 -3.49928254 22.34146572 -2 10.8125 C-2.33 10.8125 -2.66 10.8125 -3 10.8125 Z M79 11.8125 C72.95934963 21.01192733 72.95934963 21.01192733 68 30.8125 C68.33 31.4725 68.66 32.1325 69 32.8125 C75.6412241 23.93571764 75.6412241 23.93571764 80 13.8125 C79.67 13.1525 79.34 12.4925 79 11.8125 Z M-47 41.8125 C-51.87550442 47.22740272 -51.87550442 47.22740272 -54 53.8125 C-47.77591783 52.1426243 -42.96794728 49.33393245 -39 44.25 C-37.89096739 41.54673301 -37.91342288 40.47955293 -39 37.8125 C-41.94516352 37.8125 -44.76952503 40.07719924 -47 41.8125 Z M27.25 46.6875 C23.09395533 51.71512137 21.69343093 55.22126504 22 61.8125 C23.79661176 62.55995912 23.79661176 62.55995912 26 62.8125 C32.88439163 59.35685811 37.02383738 53.66123936 39.625 46.5625 C41 42.8125 41 42.8125 43 40.8125 C41.97470042 39.57978572 41.97470042 39.57978572 39.8125 39.5625 C34.21728752 40.05985222 30.92553603 42.64593548 27.25 46.6875 Z M139 43.8125 C137.78041468 45.28653117 136.59886137 46.79217239 135.4375 48.3125 C134.79683594 49.1478125 134.15617188 49.983125 133.49609375 50.84375 C133.00238281 51.4934375 132.50867188 52.143125 132 52.8125 C134.06493357 56.83368642 135.92213943 58.82584998 140 60.8125 C140.66 60.8125 141.32 60.8125 142 60.8125 C142.25287193 54.74357371 141.69832609 49.65049592 140 43.8125 C139.67 43.8125 139.34 43.8125 139 43.8125 Z M129 57.8125 C129.3147866 61.27515264 129.70266842 63.39835959 131.75 66.25 C133.92333432 68.11634397 133.92333432 68.11634397 136.75 67.5625 C137.4925 67.315 138.235 67.0675 139 66.8125 C139.33 65.8225 139.66 64.8325 140 63.8125 C139.113125 63.379375 138.22625 62.94625 137.3125 62.5 C134.45570545 61.04465183 131.72603137 59.49622526 129 57.8125 Z M19 82.8125 C17.96127313 85.47711093 17.96127313 85.47711093 18 87.8125 C18.99 88.3075 18.99 88.3075 20 88.8125 C24.51290803 85.47687233 26.68206814 83.47960699 28 77.8125 C24.38918448 77.8125 21.56685645 80.42622642 19 82.8125 Z " fill="#191919" transform="translate(535,39.1875)"/>
<path d="M0 0 C3.34487481 3.34487481 5.91084508 6.18501608 6.06591797 11.08129883 C6.02942139 12.25728638 6.02942139 12.25728638 5.9921875 13.45703125 C5.97542969 14.32263672 5.95867188 15.18824219 5.94140625 16.08007812 C5.897415 17.89018872 5.84543395 19.70012417 5.78515625 21.50976562 C5.69867621 26.81256435 6.04599859 30.39086715 9 35 C10.05429686 36.26472065 10.05429686 36.26472065 12.4375 36.25 C13.283125 36.1675 14.12875 36.085 15 36 C17.12792318 32.80811523 17.2471752 31.95513739 17.2734375 28.2890625 C17.2940625 27.37382813 17.3146875 26.45859375 17.3359375 25.515625 C17.36187239 23.59644283 17.38016544 21.6771414 17.390625 19.7578125 C17.56909739 12.69823811 17.56909739 12.69823811 19.9140625 8.8984375 C23.17921948 5.92677777 25.45416694 5.81978561 29.83203125 5.57421875 C33.23611868 6.24276925 34.66720403 7.4276408 37 10 C37.88457674 13.05550787 38.10723898 16.08452881 38.3125 19.25 C38.38533203 20.09046875 38.45816406 20.9309375 38.53320312 21.796875 C38.70928817 23.86293958 38.85740814 25.93135398 39 28 C41.64 28 44.28 28 47 28 C48.79300235 24.90689235 49.20855209 22.61314171 49.3125 19.0625 C49.64156882 15.46928077 49.97889857 14.03403457 51.9375 10.875 C56.29332305 8.20816956 60.02708294 7.87246889 65 9 C70.37352822 13.70183719 70.23791471 21.24150673 71 28 C75.00254456 28.09181134 75.00254456 28.09181134 79 28 C80.8145793 26.1854207 80.47477273 23.20502724 80.75 20.75 C81.79456935 13.42997942 81.79456935 13.42997942 84.625 10.6875 C85.40875 10.130625 86.1925 9.57375 87 9 C94.38255034 11.18120805 94.38255034 11.18120805 97 14 C97.25 17.1875 97.25 17.1875 97 20 C96.34 20 95.68 20 95 20 C95 20.66 95 21.32 95 22 C96.485 22.495 96.485 22.495 98 23 C99.1875 26.0625 99.1875 26.0625 100 29 C104.95 29.99 104.95 29.99 110 31 C110.5 33.625 110.5 33.625 110 37 C100.41338957 47.9561262 81.55248401 49.63705132 68 51 C50.88685499 52.12293414 33.9491076 51.08254264 16.9375 49.1875 C16.19513092 49.105 15.45276184 49.0225 14.68789673 48.9375 C7.02760037 48.06482554 -0.59879352 47.00154083 -8.18359375 45.61328125 C-9.3533374 45.40098877 -10.52308105 45.18869629 -11.72827148 44.9699707 C-16.62472944 43.51831579 -20.0316856 41.4524716 -22.875 37.1875 C-25.09986108 31.28055889 -24.21624214 24.22296822 -24 18 C-21.50604827 18.99177115 -19.02299893 19.98997483 -16.5625 21.0625 C-13.72285406 22.10139486 -10.98906375 22.58292134 -8 23 C-8 22.34 -8 21.68 -8 21 C-10.97 20.01 -13.94 19.02 -17 18 C-13.94366197 5.77464789 -13.94366197 5.77464789 -9.125 1.375 C-5.60313174 -0.17462204 -3.77992235 -0.8042388 0 0 Z " fill="#CE3D6B" transform="translate(36,74)"/>
<path d="M0 0 C2.25 0.8125 2.25 0.8125 3.25 1.8125 C4.65530649 10.29770501 1.73837896 16.74306591 -2.75 23.8125 C-8.98237592 32.18307896 -8.98237592 32.18307896 -13.3828125 33.75 C-15.9361668 34.59913672 -15.9361668 34.59913672 -16.89453125 37.0546875 C-17.22517578 38.35792969 -17.22517578 38.35792969 -17.5625 39.6875 C-17.79582031 40.55117187 -18.02914062 41.41484375 -18.26953125 42.3046875 C-18.87544431 45.04168745 -18.87544431 45.04168745 -18.75 48.8125 C-18.07904297 47.79929687 -18.07904297 47.79929687 -17.39453125 46.765625 C-10.59699454 36.73599727 -10.59699454 36.73599727 -4.75 33.8125 C-0.18440376 33.68910551 3.24486876 33.97897653 6.8125 36.9375 C8.66012096 40.63274191 8.89543785 42.72472698 8.25 46.8125 C5.49408177 50.98574761 3.13989824 53.52568467 -1.75 54.8125 C-2.74 54.8125 -3.73 54.8125 -4.75 54.8125 C-2.63408552 60.38361845 -2.63408552 60.38361845 1.6875 64.125 C5.53911164 63.65529126 6.73495641 61.7080343 9.25 58.8125 C10.72213398 56.26607807 11.91704709 53.6172367 13.125 50.9375 C17.09571314 42.59749477 21.26480854 36.25363715 30.25 32.8125 C34.61763742 31.65373905 37.2587199 31.59512217 41.25 33.8125 C43.50585702 37.19628553 43.49136459 38.81832681 42.828125 42.76171875 C41.43246681 47.71253327 38.67528869 49.97073199 34.42578125 52.48046875 C29.74918425 54.90217519 25.48634823 56.99432059 20.25 57.8125 C20.52540704 61.63063447 20.52540704 61.63063447 22.25 64.8125 C28.06496675 65.42460176 31.51636852 64.78784925 36.30859375 61.40234375 C44.02363636 55.08439135 48.26033977 47.25237956 51.25 37.8125 C51.2904679 35.81290945 51.29883601 33.81190367 51.25 31.8125 C52.75 29.4375 52.75 29.4375 54.25 27.8125 C55.57 28.1425 56.89 28.4725 58.25 28.8125 C58.105625 29.699375 57.96125 30.58625 57.8125 31.5 C57.88991506 34.7683637 57.88991506 34.7683637 59.73828125 36.21875 C60.97686499 37.05985863 62.23891558 37.86759143 63.5234375 38.63671875 C65.25 39.8125 65.25 39.8125 67.25 42.8125 C68.10394281 48.63483731 67.10023462 52.68207768 64.25 57.8125 C63.54241674 61.0491963 63.54241674 61.0491963 63.25 63.8125 C69.79619449 61.47041708 74.61940612 58.90072667 78.25 52.8125 C79.39133678 50.02123075 80.36659875 47.21316265 81.3046875 44.34765625 C82.4359818 41.31373063 84.00669302 39.13592509 86.25 36.8125 C89.22 37.8025 89.22 37.8025 92.25 38.8125 C91.39488834 43.70913942 89.76292192 48.20705237 88.08984375 52.875 C87.28348877 55.69536719 87.08410934 57.90138651 87.25 60.8125 C93.07646244 58.53875856 96.75542882 54.89127678 100.25 49.8125 C100.97166191 47.49558546 101.65059529 45.16401077 102.25 42.8125 C104.125 40.8125 104.125 40.8125 106.25 39.8125 C108.3828125 40.25 108.3828125 40.25 110.25 40.8125 C109.80052002 49.35261956 107.10091417 56.82783633 104.25 64.8125 C110.1756586 60.93067898 113.93645948 57.08911041 117.25 50.8125 C118.24 51.1425 119.23 51.4725 120.25 51.8125 C117.10611574 60.37085159 112.51092854 65.84089974 104.25 69.8125 C103.59 69.8125 102.93 69.8125 102.25 69.8125 C101.98832031 70.67617187 101.72664062 71.53984375 101.45703125 72.4296875 C100.2350183 75.85448756 98.75254347 78.79035145 96.9375 81.9375 C96.36386719 82.95070313 95.79023437 83.96390625 95.19921875 85.0078125 C92.76017654 88.51729608 90.07468086 90.90015957 86.25 92.8125 C82.68499524 93.20000052 80.86519994 93.20685894 77.8125 91.25 C76.25 88.8125 76.25 88.8125 76.1875 85.4375 C78.2271835 78.47857981 81.8193923 75.86139513 87.9375 72.4375 C92.91153846 69.8125 92.91153846 69.8125 95.25 69.8125 C95.91 66.5125 96.57 63.2125 97.25 59.8125 C96.26 60.8025 95.27 61.7925 94.25 62.8125 C91.54315592 65.1248243 89.71309737 66.28742749 86.125 66.4375 C81.93978156 65.76246477 80.21075559 64.77325559 77.25 61.8125 C76.77949219 62.23402344 76.30898438 62.65554687 75.82421875 63.08984375 C75.20160156 63.63769531 74.57898438 64.18554688 73.9375 64.75 C73.32261719 65.29527344 72.70773437 65.84054688 72.07421875 66.40234375 C67.98573571 69.56281993 63.17579964 69.27484943 58.25 68.8125 C55.6875 67.8125 55.6875 67.8125 54.25 65.8125 C53.42137161 59.80494416 54.78698039 56.33315543 57.42578125 51 C58.70749283 47.59830101 58.13566731 45.28136363 57.25 41.8125 C56.59 41.8125 55.93 41.8125 55.25 41.8125 C54.693125 42.946875 54.13625 44.08125 53.5625 45.25 C48.24167479 55.85052213 43.29196615 65.66932139 31.61328125 70.1875 C25.83119201 71.71664757 21.09251359 71.76665882 15.75 69 C13.25 66.8125 13.25 66.8125 11.25 63.8125 C10.8375 64.245625 10.425 64.67875 10 65.125 C6.91567358 68.0991719 4.52783989 70.25725788 0.125 70.5 C-4.61458165 69.65910648 -5.93180201 68.67745724 -8.75 64.8125 C-10.95663408 60.39923185 -11.9134636 56.76802797 -11.75 51.8125 C-10.68458984 51.46638672 -10.68458984 51.46638672 -9.59765625 51.11328125 C-8.21900391 50.62408203 -8.21900391 50.62408203 -6.8125 50.125 C-5.89597656 49.81175781 -4.97945312 49.49851563 -4.03515625 49.17578125 C-1.48467787 47.99992244 -1.48467787 47.99992244 -0.93359375 45.16796875 C-0.87300781 44.39066406 -0.81242188 43.61335938 -0.75 42.8125 C-3.32865559 41.76193661 -4.48310088 41.71416874 -7.125 42.6875 C-14.10843846 48.34075971 -17.19128163 56.74279051 -20.453125 64.87109375 C-21.75 67.8125 -21.75 67.8125 -23.75 69.8125 C-26.375 69.4375 -26.375 69.4375 -28.75 68.8125 C-29.41 66.5025 -30.07 64.1925 -30.75 61.8125 C-31.2346875 62.30621094 -31.719375 62.79992187 -32.21875 63.30859375 C-37.0386809 67.9153354 -40.00548305 69.92490862 -46.75 69.8125 C-50.32877428 68.74854008 -51.60681082 66.76013553 -53.75 63.8125 C-54.2346875 64.3178125 -54.719375 64.823125 -55.21875 65.34375 C-61.38237535 71.31772534 -61.38237535 71.31772534 -66 71.5 C-69.75 70.8125 -69.75 70.8125 -72.25 69.375 C-74.56821254 65.41472024 -74.61919772 62.28455547 -73.75 57.8125 C-70.12048868 47.93715117 -64.98893276 40.91441787 -55.75 35.875 C-51.57946895 33.95744172 -48.38367119 33.08564962 -43.75 33.8125 C-40.2113006 35.46389305 -38.93929847 36.52855229 -36.75 39.8125 C-37.125 43 -37.125 43 -37.75 45.8125 C-38.41 45.8125 -39.07 45.8125 -39.75 45.8125 C-39.53472656 46.53179687 -39.31945312 47.25109375 -39.09765625 47.9921875 C-38.66558842 51.49727708 -39.47082195 52.89493239 -41.1875 55.9375 C-43.30883676 59.63758378 -43.30883676 59.63758378 -43.75 63.8125 C-37.45787134 61.46837364 -33.25162017 59.01887728 -30.27734375 52.66796875 C-28.91405504 49.3686895 -27.81797754 46.01707456 -26.76000977 42.60961914 C-23.550631 32.32769971 -13.13983473 -0.89589782 0 0 Z M-2.75 9.8125 C-1.75 11.8125 -1.75 11.8125 -1.75 11.8125 Z M-3.75 11.8125 C-4.73635837 13.22416886 -5.71381255 14.64206184 -6.6875 16.0625 C-7.23277344 16.85140625 -7.77804687 17.6403125 -8.33984375 18.453125 C-9.64622441 20.63886993 -10.29980511 22.3278801 -10.75 24.8125 C-7.49085049 21.72952073 -4.68446327 18.8963669 -2.75 14.8125 C-3.08 13.8225 -3.41 12.8325 -3.75 11.8125 Z M28.25 40.8125 C23.37449558 46.22740272 23.37449558 46.22740272 21.25 52.8125 C27.47408217 51.1426243 32.28205272 48.33393245 36.25 43.25 C37.35903261 40.54673301 37.33657712 39.47955293 36.25 36.8125 C33.30483648 36.8125 30.48047497 39.07719924 28.25 40.8125 Z M-58.75 45.8125 C-62.93652974 51.9069299 -65.47030782 57.40065734 -65.75 64.8125 C-64.76 65.1425 -63.77 65.4725 -62.75 65.8125 C-57.26592098 62.93840759 -53.73339805 58.69502701 -49.875 53.9375 C-48.98554687 52.89529297 -48.98554687 52.89529297 -48.078125 51.83203125 C-45.3986658 48.55370675 -43.8569624 46.6400512 -43.3046875 42.3671875 C-43.48486282 39.88591159 -43.48486282 39.88591159 -44.75 38.8125 C-51.24083807 37.54599501 -54.74349337 41.20860173 -58.75 45.8125 Z M86.75 78.125 C85.83734375 78.76888672 85.83734375 78.76888672 84.90625 79.42578125 C82.98895233 80.89871492 82.98895233 80.89871492 81.25 83.8125 C81.5621764 86.45882287 81.5621764 86.45882287 82.25 88.8125 C87.35557473 85.09935474 89.80426749 81.61032471 92.25 75.8125 C89.68621311 75.8125 88.81576849 76.64132306 86.75 78.125 Z " fill="#191919" transform="translate(848.75,40.1875)"/>
<path d="M0 0 C0.31830592 3.67276058 0.5990172 7.34201333 0.7890625 11.0234375 C0.91221232 13.3450396 1.07520633 15.66636307 1.3359375 17.9765625 C1.45177251 20.85461701 1.34167549 22.4377725 0 25 C-11.05575406 33.52214376 -26.93368644 36.23409308 -40.5234375 36.82421875 C-43.26701479 36.96293895 -45.93054537 37.20669003 -48.65625 37.515625 C-54.48487104 38.12004607 -60.27060299 38.11091422 -66.125 38.0625 C-67.7028125 38.05573242 -67.7028125 38.05573242 -69.3125 38.04882812 C-71.87506221 38.03718011 -74.43749877 38.02082553 -77 38 C-77 37.34 -77 36.68 -77 36 C-77.99 36.495 -77.99 36.495 -79 37 C-81.12318064 37.0972886 -83.24959691 37.12977619 -85.375 37.125 C-86.51710937 37.12757813 -87.65921875 37.13015625 -88.8359375 37.1328125 C-91.48866204 37.02146357 -93.47886955 36.70891193 -96 36 C-99.13561884 35.4739722 -102.27596388 34.98630789 -105.41796875 34.5 C-108 34 -108 34 -109 33 C-110.9490625 32.814375 -110.9490625 32.814375 -112.9375 32.625 C-119.83240615 31.92008947 -126.617419 30.57166814 -132 26 C-133.3125 24.0625 -133.3125 24.0625 -134 22 C-133.5625 19.8125 -133.5625 19.8125 -133 18 C-133.33 17.67 -133.66 17.34 -134 17 C-133.909084 14.29891496 -133.76259234 11.63069689 -133.5625 8.9375 C-133.51029297 8.17888672 -133.45808594 7.42027344 -133.40429688 6.63867188 C-133.27424165 4.75878278 -133.13771962 2.87934315 -133 1 C-128.40254487 2.00366978 -123.82076073 3.03299441 -119.2578125 4.18359375 C-108.83296161 6.76156381 -98.49066806 8.62922762 -87.8125 9.8125 C-86.70342285 9.93616943 -85.5943457 10.05983887 -84.45166016 10.18725586 C-77.60815049 10.8880848 -70.87608873 11.16110182 -64 11 C-63.23550537 10.98348389 -62.47101074 10.96696777 -61.68334961 10.94995117 C-40.90180403 10.355537 -19.52832473 0 0 0 Z M-90 32 C-90.33 32.66 -90.66 33.32 -91 34 C-90.01 33.67 -89.02 33.34 -88 33 C-88.66 32.67 -89.32 32.34 -90 32 Z " fill="#EEC37B" transform="translate(146,116)"/>
<path d="M0 0 C0.721875 0.103125 1.44375 0.20625 2.1875 0.3125 C3.1875 3.3125 3.1875 3.3125 1.640625 6.9296875 C0.91640394 8.35416642 0.18155746 9.77328119 -0.5625 11.1875 C-1.10390625 12.24904297 -1.10390625 12.24904297 -1.65625 13.33203125 C-3.58860397 17.09171995 -5.6317135 20.67785583 -7.8125 24.3125 C-2.5325 24.6425 2.7475 24.9725 8.1875 25.3125 C7.8575 26.6325 7.5275 27.9525 7.1875 29.3125 C0.81444402 30.05757544 -5.39561325 30.41599817 -11.8125 30.3125 C-11.94527344 30.91578125 -12.07804688 31.5190625 -12.21484375 32.140625 C-12.39144531 32.93984375 -12.56804687 33.7390625 -12.75 34.5625 C-12.92402344 35.35140625 -13.09804688 36.1403125 -13.27734375 36.953125 C-13.60881122 38.41448523 -13.96929298 39.86998615 -14.375 41.3125 C-14.87871497 43.61519703 -14.9096266 45.70789108 -14.875 48.0625 C-14.86597656 48.86171875 -14.85695313 49.6609375 -14.84765625 50.484375 C-14.83605469 51.08765625 -14.82445312 51.6909375 -14.8125 52.3125 C-12.75679776 53.74031868 -12.75679776 53.74031868 -9.8125 54.3125 C-3.0225574 52.61152875 0.5503985 47.95348226 4.1875 42.3125 C4.8475 41.3225 5.5075 40.3325 6.1875 39.3125 C6.8475 39.3125 7.5075 39.3125 8.1875 39.3125 C7.05608721 46.71219972 2.88206118 52.30870777 -3 56.8125 C-8.00443557 60.36594538 -12.77549041 61.11087265 -18.8125 60.3125 C-21.92567533 58.07739976 -23.17197948 55.69296653 -24.8125 52.3125 C-25.34359375 52.72242188 -25.8746875 53.13234375 -26.421875 53.5546875 C-27.12828125 54.09351563 -27.8346875 54.63234375 -28.5625 55.1875 C-29.25859375 55.72117188 -29.9546875 56.25484375 -30.671875 56.8046875 C-36.72671227 61.06959112 -42.51415731 61.23868562 -49.8125 60.3125 C-53.17587494 57.87240446 -54.53131164 55.73428255 -56.8125 52.3125 C-57.33199219 52.72242188 -57.85148437 53.13234375 -58.38671875 53.5546875 C-65.52076364 59.06675915 -70.66429687 61.29212636 -79.8125 60.3125 C-83.57542473 58.71125543 -85.65347382 56.76694189 -87.8125 53.3125 C-88.1425 52.3225 -88.4725 51.3325 -88.8125 50.3125 C-89.699375 50.395 -90.58625 50.4775 -91.5 50.5625 C-95.52683365 50.25858803 -96.99486593 49.13013407 -99.8125 46.3125 C-99.8125 45.6525 -99.8125 44.9925 -99.8125 44.3125 C-100.4725 44.3125 -101.1325 44.3125 -101.8125 44.3125 C-102.06 45.03953125 -102.3075 45.7665625 -102.5625 46.515625 C-103.93529256 49.58724835 -105.55015907 51.5839059 -107.8125 54.0625 C-108.864375 55.23039062 -108.864375 55.23039062 -109.9375 56.421875 C-112.59393931 59.1004513 -113.44999832 59.29308027 -117.3125 59.5 C-120.8125 59.3125 -120.8125 59.3125 -122.8125 57.3125 C-123.4453125 55.1484375 -123.4453125 55.1484375 -123.9375 52.6875 C-124.10507812 51.87023437 -124.27265625 51.05296875 -124.4453125 50.2109375 C-124.56648438 49.58445313 -124.68765625 48.95796875 -124.8125 48.3125 C-125.18761719 48.85519531 -125.56273437 49.39789063 -125.94921875 49.95703125 C-131.47885888 57.68738458 -131.47885888 57.68738458 -135.8125 59.3125 C-139.28170704 59.24311586 -141.06375045 59.00961165 -143.625 56.625 C-146.79380846 50.45416247 -145.43179654 44.95969012 -143.84765625 38.52734375 C-142.44904115 34.18372026 -140.48382808 30.99460087 -137.8125 27.3125 C-136.1625 27.6425 -134.5125 27.9725 -132.8125 28.3125 C-131.96958668 30.70253272 -131.65865596 31.8979308 -132.5546875 34.3125 C-132.92851562 34.9725 -133.30234375 35.6325 -133.6875 36.3125 C-136.11799167 40.66358999 -136.94839658 44.07153253 -136.875 49.0625 C-136.86146484 50.26132813 -136.86146484 50.26132813 -136.84765625 51.484375 C-136.83605469 52.08765625 -136.82445312 52.6909375 -136.8125 53.3125 C-127.35497751 48.3210298 -123.15799152 37.99681756 -119.8125 28.3125 C-118.1625 28.3125 -116.5125 28.3125 -114.8125 28.3125 C-113.3397928 33.72265354 -114.49231959 38.41096379 -115.4375 43.83984375 C-115.80857606 47.27616265 -115.5509108 49.95375641 -114.8125 53.3125 C-107.67730209 48.12996383 -103.08260797 40.44910527 -101.5625 31.75 C-101.47484375 30.96496094 -101.3871875 30.17992188 -101.296875 29.37109375 C-100.70150746 26.8407817 -99.88696093 25.85209992 -97.8125 24.3125 C-95.125 24.625 -95.125 24.625 -92.8125 25.3125 C-91.55866172 30.82938843 -91.55866172 30.82938843 -92.78125 33.15625 C-94.10287738 35.91965271 -94.01003409 38.01606802 -93.9375 41.0625 C-93.91945313 42.04734375 -93.90140625 43.0321875 -93.8828125 44.046875 C-93.85960937 44.79453125 -93.83640625 45.5421875 -93.8125 46.3125 C-91.39155247 46.24679458 -91.39155247 46.24679458 -88.8125 45.3125 C-87.17887799 42.83585473 -87.17887799 42.83585473 -86 39.75 C-82.64018923 32.49488162 -78.45652001 27.7935349 -71.875 23.3125 C-67.84350941 21.99609491 -64.0184121 21.69563289 -59.8125 22.3125 C-56.8125 24.3125 -56.8125 24.3125 -56.2734375 26.1953125 C-56.09515094 30.84697105 -56.66353233 33.8433366 -59.5625 37.5625 C-64.07090746 42.17232358 -69.69098596 44.51662564 -75.8125 46.3125 C-77.1325 46.3125 -78.4525 46.3125 -79.8125 46.3125 C-78.9520861 50.64479715 -78.9520861 50.64479715 -76.8125 54.3125 C-70.01225145 55.02831564 -66.13006067 53.55761146 -60.8125 49.3125 C-57.42604707 46.33887181 -55.73585675 43.46269917 -53.875 39.375 C-51.69190055 34.86070138 -49.7438444 31.53821848 -45.8125 28.3125 C-44.94625 27.57 -44.08 26.8275 -43.1875 26.0625 C-39.91102407 23.64825458 -37.28598749 23.14196975 -33.3125 23.0625 C-32.5390625 23.03671875 -31.765625 23.0109375 -30.96875 22.984375 C-28.8125 23.3125 -28.8125 23.3125 -27.0546875 24.6171875 C-24.97746458 27.45213953 -25.46155741 29.92005501 -25.8125 33.3125 C-28.32846577 39.18308679 -33.0874542 42.79906178 -38.875 45.125 C-41.93682436 46.17107435 -44.55235663 46.61813844 -47.8125 46.3125 C-46.8225 50.2725 -46.8225 50.2725 -45.8125 54.3125 C-40.75787052 55.86777061 -37.60906429 54.9332932 -33.0546875 52.6484375 C-26.31577276 48.6332653 -23.4564176 44.45710321 -21.375 36.875 C-20.83122861 34.69308885 -20.30255627 32.50709984 -19.8125 30.3125 C-20.4725 29.9825 -21.1325 29.6525 -21.8125 29.3125 C-21.8125 27.9925 -21.8125 26.6725 -21.8125 25.3125 C-20.1625 25.3125 -18.5125 25.3125 -16.8125 25.3125 C-16.72484375 24.6421875 -16.6371875 23.971875 -16.546875 23.28125 C-15.60665986 19.48038027 -13.90602569 16.23522232 -12.0625 12.8125 C-11.72734375 12.16152344 -11.3921875 11.51054688 -11.046875 10.83984375 C-5.59731791 0.62192421 -5.59731791 0.62192421 0 0 Z M-72.12890625 31.5859375 C-76.28550146 35.832401 -76.28550146 35.832401 -77.8125 41.3125 C-74.40653535 40.67485365 -72.05236879 39.3633817 -69.1875 37.4375 C-68.41148437 36.92445312 -67.63546875 36.41140625 -66.8359375 35.8828125 C-64.57455471 34.29926172 -64.57455471 34.29926172 -62.8125 31.3125 C-62.8125 29.9925 -62.8125 28.6725 -62.8125 27.3125 C-67.71909606 27.3125 -68.67061733 28.44744734 -72.12890625 31.5859375 Z M-41.1953125 32.65234375 C-43.6723338 35.19517962 -45.8125 37.66209658 -45.8125 41.3125 C-40.50798393 40.98096775 -36.44568673 38.00510801 -32.8125 34.3125 C-31.68821136 31.10469782 -31.68821136 31.10469782 -31.8125 28.3125 C-36.73704154 28.3125 -37.72241599 29.49990765 -41.1953125 32.65234375 Z " fill="#191919" transform="translate(381.8125,50.6875)"/>
<path d="M0 0 C6.61419977 0.52913598 10.4059453 2.4892149 15.14477539 7.07592773 C17.71015642 11.11929772 17.5593782 14.34050553 17.49609375 19.03515625 C17.49754898 19.90965927 17.49900421 20.78416229 17.50050354 21.68516541 C17.49884638 23.53517995 17.48730558 25.38520854 17.46655273 27.23510742 C17.43784321 30.02909926 17.44589912 32.82116138 17.45898438 35.61523438 C17.44677713 44.24213764 17.10233392 51.95022154 14.62573242 60.27416992 C13.45594995 65.37000342 14.03306369 70.4533105 14.4375 75.625 C15.85263475 94.75855741 15.85263475 94.75855741 10.75 101.4375 C4.81510376 106.96774422 -2.03077573 108.08874161 -9.75 109.625 C-10.78382812 109.8415625 -11.81765625 110.058125 -12.8828125 110.28125 C-23.16390059 112.37890273 -33.16447548 113.15957469 -43.6484375 113.203125 C-44.74104889 113.20882507 -45.83366028 113.21452515 -46.9593811 113.22039795 C-49.26376392 113.22979547 -51.56815987 113.23636089 -53.87255859 113.24023438 C-57.33065436 113.24987635 -60.78813856 113.28092501 -64.24609375 113.3125 C-111.91151398 113.53971433 -111.91151398 113.53971433 -126 102 C-129.50675403 96.67346303 -129.44065072 91.86052224 -129.44140625 85.703125 C-129.45461411 84.71431335 -129.46782196 83.72550171 -129.48143005 82.70672607 C-129.52219458 79.55445563 -129.54394186 76.40247357 -129.5625 73.25 C-129.58641256 70.1118994 -129.61477401 66.97406532 -129.65428162 63.83612061 C-129.67832111 61.88833873 -129.6934364 59.9404178 -129.69789124 57.99249268 C-129.75943001 52.55043303 -130.37495986 47.56537499 -131.54338074 42.25231934 C-132.58605732 37.10921472 -132.36908195 31.85063676 -132.375 26.625 C-132.39949219 25.46355469 -132.42398438 24.30210938 -132.44921875 23.10546875 C-132.45308594 21.99042969 -132.45695313 20.87539063 -132.4609375 19.7265625 C-132.46915527 18.72189941 -132.47737305 17.71723633 -132.48583984 16.68212891 C-131.87809374 13.32700393 -130.57594145 12.14587344 -128 10 C-126.69320229 12.61359542 -126.9357093 14.4609618 -127.0078125 17.3828125 C-127.02457031 18.46820313 -127.04132813 19.55359375 -127.05859375 20.671875 C-127.1024172 22.95069465 -127.15433097 25.22937494 -127.21484375 27.5078125 C-127.29973666 34.05228413 -127.06709694 39.14400085 -124 45 C-120.45136841 46.61135346 -120.45136841 46.61135346 -117 47 C-117 47.66 -117 48.32 -117 49 C-114.36 49.99 -111.72 50.98 -109 52 C-109 52.66 -109 53.32 -109 54 C-115.41923331 53.70887831 -119.62100206 52.54784971 -125 49 C-124.94193996 60.49586357 -124.94193996 60.49586357 -121 71 C-111.4345346 77.88769029 -95.56608769 77.90909818 -84.0625 79.1875 C-83.29152985 79.27338379 -82.52055969 79.35926758 -81.72622681 79.44775391 C-36.20118307 84.48055182 -36.20118307 84.48055182 5.78515625 70.046875 C8.56917287 67.47399191 8.74717015 65.70817118 9 62 C7.7625 62.0825 6.525 62.165 5.25 62.25 C2.06223681 62.25 1.21031488 62.14722042 -1.5 60.25 C-3 58 -3 58 -3 54 C-4.98 53.505 -4.98 53.505 -7 53 C-6.505 52.01 -6.505 52.01 -6 51 C-5.34 51 -4.68 51 -4 51 C-3.94824448 48.12688428 -3.94824448 48.12688428 -5 45 C-7.22511214 43.23488701 -9.40437603 42.22702224 -12 41 C-12 40.67 -12 40.34 -12 40 C-4.56509695 39.63434903 -4.56509695 39.63434903 -2.33984375 41.07421875 C-0.38318303 43.886562 -0.00991352 46.65100561 0.625 50 C1.59263788 55.05768889 1.59263788 55.05768889 3 60 C5.94091587 59.81584568 5.94091587 59.81584568 9 59 C14.26136973 52.73646461 12.37899612 38.72438271 11.7734375 31.17578125 C11.59144415 29.39484628 11.40006316 27.61484516 11.19921875 25.8359375 C10.96958719 22.56706477 11.15442286 19.39682923 11.3125 16.125 C11.41988451 11.9162285 11.41988451 11.9162285 9.87890625 8.13671875 C6.74648624 5.37856191 2.98500428 4.0436916 -1 3 C-0.67 2.01 -0.34 1.02 0 0 Z M0.52734375 75.078125 C-17.33033513 81.59189967 -36.09891719 83.57343392 -55 84 C-55.80550293 84.02553955 -56.61100586 84.0510791 -57.44091797 84.07739258 C-65.69904332 84.22758232 -73.8178972 83.31508964 -82 82.3125 C-82.72522858 82.22551849 -83.45045715 82.13853699 -84.19766235 82.04891968 C-94.49631 80.79798729 -104.47137286 79.05897907 -114.41796875 76.05078125 C-117.61919791 75.11170748 -120.70132947 74.4668414 -124 74 C-124.16861758 76.56238505 -124.33495773 79.12488424 -124.5 81.6875 C-124.54769531 82.40873047 -124.59539062 83.12996094 -124.64453125 83.87304688 C-125.58082917 92.52346189 -125.58082917 92.52346189 -122 100 C-117.23581868 102.30505788 -112.45882765 103.827659 -107.3125 105.0625 C-106.6205957 105.23241455 -105.92869141 105.4023291 -105.21582031 105.57739258 C-99.9972026 106.83031797 -94.76242265 107.81204019 -89.453125 108.60546875 C-87 109 -87 109 -85.04296875 109.515625 C-74.91093514 111.91786624 -63.58992539 111.103468 -53.25 111.125 C-51.40353882 111.13188843 -51.40353882 111.13188843 -49.51977539 111.13891602 C-33.29745223 111.11163327 -18.44191559 108.85492194 -3 104 C-1.74445313 103.61328125 -0.48890625 103.2265625 0.8046875 102.828125 C4.13410419 101.53468255 6.43393123 100.4900371 9 98 C10.50131611 93.25774753 10.35965658 88.92412168 10 84 C9.93296875 82.89269531 9.8659375 81.78539063 9.796875 80.64453125 C9.59798464 78.0821605 9.33789512 75.5472094 9 73 C5.74270846 73 3.53175682 73.92634277 0.52734375 75.078125 Z " fill="#2C2928" transform="translate(137,43)"/>
<path d="M0 0 C3.83606949 2.87705212 5.87078049 5.34759107 7.1875 10 C7.27398966 15.10289001 6.34989971 19.36470591 2.8515625 23.234375 C-0.78794689 26.37506838 -3.91394476 28.6875 -8.75 28.6875 C-8.75 29.3475 -8.75 30.0075 -8.75 30.6875 C-7.88375 30.77 -7.0175 30.8525 -6.125 30.9375 C-1.15760642 32.04136524 2.99508399 34.74733851 6.25 38.6875 C8.02276597 44.00579792 7.97212067 48.72580184 5.6875 53.8125 C0.11696975 63.68139789 -11.18602192 68.60375022 -21.6875 71.5625 C-28.6384067 73.09901622 -37.04560619 74.60905795 -43.56640625 71.2265625 C-45.75 69.6875 -45.75 69.6875 -46.75 68.6875 C-46.79080783 66.68791636 -46.79254356 64.68704746 -46.75 62.6875 C-44.90148437 62.73970703 -44.90148437 62.73970703 -43.015625 62.79296875 C-28.88305622 63.07619229 -16.72824405 62.03349969 -4.75 53.6875 C-1.68812748 50.41200847 -0.5289799 47.95295589 -0.1875 43.5625 C-0.41806736 39.70062565 -0.41806736 39.70062565 -2.625 37.3125 C-10.8943966 33.01241377 -20.62153904 33.18732927 -29.75 32.6875 C-29.976875 33.945625 -30.20375 35.20375 -30.4375 36.5 C-31.54078305 41.95337048 -32.8346125 47.35408158 -34.1875 52.75 C-34.49530396 54.03644409 -34.49530396 54.03644409 -34.80932617 55.34887695 C-35.01533447 56.15284912 -35.22134277 56.95682129 -35.43359375 57.78515625 C-35.61462646 58.51226807 -35.79565918 59.23937988 -35.98217773 59.98852539 C-36.23555908 60.54918701 -36.48894043 61.10984863 -36.75 61.6875 C-39.75 62.6875 -39.75 62.6875 -42.4375 61.75 C-44.75 59.6875 -44.75 59.6875 -45.02954102 56.00976562 C-44.90364019 51.88519196 -43.94898179 48.37650203 -42.58984375 44.46875 C-42.36432831 43.81209351 -42.13881287 43.15543701 -41.90646362 42.47888184 C-41.17979933 40.37695776 -40.43463446 38.28222576 -39.6875 36.1875 C-39.18350075 34.74751379 -38.67983947 33.30740924 -38.17651367 31.8671875 C-34.7981058 22.27660468 -31.16829214 12.85583318 -26.75 3.6875 C-27.50925781 3.92726563 -28.26851562 4.16703125 -29.05078125 4.4140625 C-30.54158203 4.85878906 -30.54158203 4.85878906 -32.0625 5.3125 C-33.04863281 5.61414062 -34.03476562 5.91578125 -35.05078125 6.2265625 C-37.75 6.6875 -37.75 6.6875 -40.75 4.6875 C-40.75 3.6975 -40.75 2.7075 -40.75 1.6875 C-39.02255984 1.03706281 -37.2929631 0.39235156 -35.5625 -0.25 C-34.59957031 -0.60964844 -33.63664063 -0.96929687 -32.64453125 -1.33984375 C-22.2587789 -4.82979292 -9.95273552 -4.75016922 0 0 Z M-17.75 0.6875 C-20.95392529 6.48183297 -23.47085772 12.35614688 -25.5625 18.625 C-25.89060669 19.6006189 -25.89060669 19.6006189 -26.2253418 20.59594727 C-27.14198704 23.41965727 -27.75 25.69811054 -27.75 28.6875 C-19.01062125 28.31561154 -10.38785268 27.00118595 -4.1875 20.3125 C-1.82907686 17.18575204 -0.75 14.68451359 -0.75 10.6875 C-1.70637982 7.2604723 -2.81105249 4.74476326 -5.75 2.6875 C-9.83512584 1.29385366 -13.418846 0.6875 -17.75 0.6875 Z " fill="#191919" transform="translate(767.75,42.3125)"/>
<path d="M0 0 C5.20957544 3.88790725 7.73462113 8.50425554 9.09765625 14.81640625 C10.49315326 30.45231598 6.92429419 43.75579669 -3.15234375 56.06640625 C-11.07994369 64.58770311 -21.83965397 71.13043846 -33.5859375 72.01953125 C-43.48437332 72.18801526 -43.48437332 72.18801526 -47.90234375 68.81640625 C-49.20931918 64.80594324 -48.6944589 62.04154091 -47.53125 58.046875 C-47.20801758 56.92168457 -46.88478516 55.79649414 -46.55175781 54.63720703 C-46.19307617 53.43821777 -45.83439453 52.23922852 -45.46484375 51.00390625 C-45.10229492 49.76882324 -44.73974609 48.53374023 -44.36621094 47.26123047 C-41.90231504 38.95435107 -39.338258 30.67928217 -36.65234375 22.44140625 C-36.33595947 21.4568042 -36.0195752 20.47220215 -35.69360352 19.45776367 C-33.65016442 13.34029484 -31.5251671 8.4392296 -26.90234375 3.81640625 C-23.77734375 4.19140625 -23.77734375 4.19140625 -20.90234375 4.81640625 C-21.52196621 8.3086467 -22.42648961 11.47649617 -23.6875 14.7890625 C-24.04980713 15.7581958 -24.41211426 16.7273291 -24.78540039 17.72583008 C-25.1746167 18.76634521 -25.56383301 19.80686035 -25.96484375 20.87890625 C-29.51263392 30.53737857 -32.63878852 40.23932417 -35.46484375 50.12890625 C-35.8110376 51.33232666 -36.15723145 52.53574707 -36.51391602 53.77563477 C-38.34249263 60.19711626 -38.34249263 60.19711626 -38.90234375 66.81640625 C-30.06159924 66.61338289 -23.86294229 64.31647008 -17.21484375 58.44140625 C-16.45171875 57.57515625 -15.68859375 56.70890625 -14.90234375 55.81640625 C-14.433125 55.34976563 -13.96390625 54.883125 -13.48046875 54.40234375 C-4.09095649 44.57723556 -0.3554722 31.20474917 -0.5859375 17.9453125 C-1.17814701 12.08901849 -3.24482762 8.39306793 -7.46484375 4.37890625 C-13.29124937 0.64403085 -20.6577911 0.99801211 -27.29296875 2.27734375 C-32.38039498 3.92784463 -34.85470215 6.4758258 -37.90234375 10.81640625 C-39.10507194 13.22186263 -39.00305847 14.76637578 -38.96484375 17.44140625 C-38.95130859 18.66730469 -38.95130859 18.66730469 -38.9375 19.91796875 C-38.92589844 20.54445313 -38.91429687 21.1709375 -38.90234375 21.81640625 C-43.39263501 22.18048392 -43.39263501 22.18048392 -45.65234375 20.56640625 C-47.16380304 18.45036325 -47.75677529 17.43663848 -47.90234375 14.81640625 C-46.0669979 8.3315176 -42.43670787 4.57120211 -36.90234375 0.81640625 C-25.28266986 -5.02874885 -11.46252834 -7.13171681 0 0 Z " fill="#191919" transform="translate(464.90234375,43.18359375)"/>
<path d="M0 0 C3.34487481 3.34487481 5.91084508 6.18501608 6.06591797 11.08129883 C6.02942139 12.25728638 6.02942139 12.25728638 5.9921875 13.45703125 C5.97542969 14.32263672 5.95867188 15.18824219 5.94140625 16.08007812 C5.897415 17.89018872 5.84543395 19.70012417 5.78515625 21.50976562 C5.69867621 26.81256435 6.04599859 30.39086715 9 35 C10.05429686 36.26472065 10.05429686 36.26472065 12.4375 36.25 C13.283125 36.1675 14.12875 36.085 15 36 C17.12792318 32.80811523 17.2471752 31.95513739 17.2734375 28.2890625 C17.2940625 27.37382813 17.3146875 26.45859375 17.3359375 25.515625 C17.36187239 23.59644283 17.38016544 21.6771414 17.390625 19.7578125 C17.56909739 12.69823811 17.56909739 12.69823811 19.9140625 8.8984375 C23.17921948 5.92677777 25.45416694 5.81978561 29.83203125 5.57421875 C33.23611868 6.24276925 34.66720403 7.4276408 37 10 C37.88457674 13.05550787 38.10723898 16.08452881 38.3125 19.25 C38.38533203 20.09046875 38.45816406 20.9309375 38.53320312 21.796875 C38.70928817 23.86293958 38.85740814 25.93135398 39 28 C41.64 28 44.28 28 47 28 C48.79300235 24.90689235 49.20855209 22.61314171 49.3125 19.0625 C49.64156882 15.46928077 49.97889857 14.03403457 51.9375 10.875 C56.29332305 8.20816956 60.02708294 7.87246889 65 9 C70.37352822 13.70183719 70.23791471 21.24150673 71 28 C75.00254456 28.09181134 75.00254456 28.09181134 79 28 C80.8145793 26.1854207 80.47477273 23.20502724 80.75 20.75 C81.79456935 13.42997942 81.79456935 13.42997942 84.625 10.6875 C85.40875 10.130625 86.1925 9.57375 87 9 C94.38255034 11.18120805 94.38255034 11.18120805 97 14 C97.25 17.1875 97.25 17.1875 97 20 C96.34 20 95.68 20 95 20 C95 20.66 95 21.32 95 22 C96.485 22.495 96.485 22.495 98 23 C97.505 24.485 97.505 24.485 97 26 C97 25.34 97 24.68 97 24 C96.39671875 24.144375 95.7934375 24.28875 95.171875 24.4375 C94.37265625 24.623125 93.5734375 24.80875 92.75 25 C91.96109375 25.185625 91.1721875 25.37125 90.359375 25.5625 C88 26 88 26 84 26 C83.505 27.485 83.505 27.485 83 29 C80.12561831 30.89937116 77.78167768 31.27278714 74.375 31.25 C73.59898438 31.25515625 72.82296875 31.2603125 72.0234375 31.265625 C70 31 70 31 68 29 C65.28247665 28.9912149 62.69932957 29.09306149 60 29.3125 C59.26265625 29.36083984 58.5253125 29.40917969 57.765625 29.45898438 C53.75216707 29.69400211 53.75216707 29.69400211 50 31 C48.16871229 31.09608608 46.33380041 31.12982579 44.5 31.125 C43.5203125 31.12757812 42.540625 31.13015625 41.53125 31.1328125 C39 31 39 31 37 30 C34.45384991 29.76827173 31.92603775 29.58105471 29.375 29.4375 C28.66859375 29.39431641 27.9621875 29.35113281 27.234375 29.30664062 C25.48981463 29.20055249 23.74493303 29.09977111 22 29 C21.731875 29.928125 21.46375 30.85625 21.1875 31.8125 C20.071122 34.80909358 19.53828432 36.16712962 17 38 C13.37720873 39.21449765 9.70505392 39.70249634 6.11328125 38.22265625 C3.71607501 36.49875733 2.20516733 34.74133796 1.4140625 31.8828125 C1.125 29.6875 1.125 29.6875 1 26 C-4.94 25.01 -4.94 25.01 -11 24 C-10.01 23.67 -9.02 23.34 -8 23 C-8 22.34 -8 21.68 -8 21 C-10.97 20.01 -13.94 19.02 -17 18 C-13.94366197 5.77464789 -13.94366197 5.77464789 -9.125 1.375 C-5.60313174 -0.17462204 -3.77992235 -0.8042388 0 0 Z " fill="#392E2E" transform="translate(36,74)"/>
<path d="M0 0 C3.11957492 2.2065286 3.84379306 3.05925262 4.5625 6.8125 C5.15060532 15.91083526 0.81168428 23.11293371 -3.4375 30.8125 C-5.375 30.1875 -5.375 30.1875 -7.4375 28.8125 C-9.14666651 23.79598529 -7.81469796 19.94456725 -6 15.1875 C-4.53914545 11.25055512 -3.4375 8.09427079 -3.4375 3.8125 C-10.67041066 4.0983858 -15.54374333 4.86451273 -20.83984375 10.234375 C-24.55475132 14.41230003 -26.27691237 17.64456702 -26.6875 23.1875 C-24.07195168 30.77259014 -15.18893106 33.98795801 -8.4765625 37.640625 C-2.75332859 40.92983989 0.55039249 44.32904245 2.5625 50.8125 C3.31957624 56.76095615 1.89261654 60.96511142 -1.4375 65.8125 C-6.58026891 71.72801657 -12.62892397 74.28615587 -20.328125 75.12890625 C-27.89077584 75.42947314 -35.21572376 74.45062054 -41.1328125 69.3515625 C-44.65434786 65.38731983 -45.31019211 62.53115648 -45.6875 57.4375 C-45.40140945 53.28918704 -44.84976242 51.20474403 -42.4375 47.8125 C-38.41199712 45.05191098 -35.35216716 43.8125 -30.4375 43.8125 C-30.705625 44.3075 -30.97375 44.8025 -31.25 45.3125 C-35.25281808 53.25890614 -35.25281808 53.25890614 -34.4375 61.8125 C-30.56336068 66.33241063 -30.56336068 66.33241063 -25.1171875 68.05078125 C-18.73630165 68.21963478 -13.6650682 67.72990073 -8.4375 63.8125 C-6.30937908 60.62031862 -6.1388877 58.70830568 -5.9765625 54.9453125 C-6.80918936 51.09264924 -9.07517724 48.75153478 -12.27929688 46.54296875 C-14.45271096 45.22796191 -16.65157733 43.97848375 -18.875 42.75 C-32.77517391 34.95874372 -32.77517391 34.95874372 -35.4375 27.8125 C-36.18331165 21.10019515 -34.63267046 15.87059954 -30.73828125 10.4453125 C-22.94006836 1.09971356 -12.0941534 -4.17798026 0 0 Z " fill="#191919" transform="translate(229.4375,40.1875)"/>
<path d="M0 0 C0.66 0.639375 1.32 1.27875 2 1.9375 C5.85690912 4.58912502 8.37840033 4.68667121 13 5 C13.5 7.625 13.5 7.625 13 11 C4.7319757 20.44917063 -10.20395414 22.39806785 -22 24 C-24.33288492 24.04574284 -26.66744929 24.06042877 -29 24 C-23.40685383 17.63538539 -15.9300621 12.91630907 -8 10 C-8.99 10 -9.98 10 -11 10 C-11.66 9.67 -12.32 9.34 -13 9 C-11.39612733 7.8745809 -9.79189084 6.74968028 -8.1875 5.625 C-7.29417969 4.99851562 -6.40085937 4.37203125 -5.48046875 3.7265625 C-3.66732122 2.46449761 -1.83811789 1.22541192 0 0 Z " fill="#CD386A" transform="translate(133,100)"/>
<path d="M0 0 C2 2 2 2 2.22705078 4.70556641 C2.21134033 6.38658447 2.21134033 6.38658447 2.1953125 8.1015625 C2.18564453 9.91914062 2.18564453 9.91914062 2.17578125 11.7734375 C2.15902344 13.04445313 2.14226562 14.31546875 2.125 15.625 C2.11597656 16.90375 2.10695313 18.1825 2.09765625 19.5 C2.07402303 22.66685167 2.04107629 25.83333424 2 29 C-0.24512262 30.12256131 -1.51456649 30.13413762 -4 30.125 C-5.051875 30.12886719 -5.051875 30.12886719 -6.125 30.1328125 C-8 30 -8 30 -10 29 C-11.43099875 21.29150675 -13.67474139 7.51034823 -9.60546875 0.6484375 C-6.35544657 -2.68856824 -3.78473262 -2.39699733 0 0 Z " fill="#E8D3C2" transform="translate(81,28)"/>
<path d="M0 0 C3.5625 0.3125 3.5625 0.3125 5.26245117 1.44897461 C7.13611535 4.13473587 6.93457236 6.18940957 6.92578125 9.44140625 C6.92513672 10.64087891 6.92449219 11.84035156 6.92382812 13.07617188 C6.90771484 14.32978516 6.89160156 15.58339844 6.875 16.875 C6.87822266 18.13248047 6.88144531 19.38996094 6.88476562 20.68554688 C6.82938058 30.04561942 6.82938058 30.04561942 4.5625 32.3125 C-1.59956505 32.87268773 -1.59956505 32.87268773 -4.13745117 31.17602539 C-6.01111535 28.49026413 -5.80957236 26.43559043 -5.80078125 23.18359375 C-5.80013672 21.98412109 -5.79949219 20.78464844 -5.79882812 19.54882812 C-5.78271484 18.29521484 -5.76660156 17.04160156 -5.75 15.75 C-5.75322266 14.49251953 -5.75644531 13.23503906 -5.75976562 11.93945312 C-5.69217993 0.5174709 -5.69217993 0.5174709 0 0 Z " fill="#ECD9C7" transform="translate(113.4375,23.6875)"/>
<path d="M0 0 C1.4540625 0.0309375 1.4540625 0.0309375 2.9375 0.0625 C3.2675 1.0525 3.5975 2.0425 3.9375 3.0625 C4.9275 3.3925 5.9175 3.7225 6.9375 4.0625 C7.1729182 26.3749143 7.1729182 26.3749143 5.9375 32.0625 C3.16649606 33.44800197 1.0040294 33.2502467 -2.0625 33.0625 C-5.0625 31.0625 -5.0625 31.0625 -5.52661133 28.83520508 C-5.5655249 27.92665771 -5.60443848 27.01811035 -5.64453125 26.08203125 C-5.68900391 25.08236328 -5.73347656 24.08269531 -5.77929688 23.05273438 C-5.81087891 22.00408203 -5.84246094 20.95542969 -5.875 19.875 C-5.92591797 18.84568359 -5.97683594 17.81636719 -6.02929688 16.75585938 C-6.24391964 11.07745041 -6.09074323 6.39493584 -4.0625 1.0625 C-3.0625 0.0625 -3.0625 0.0625 0 0 Z " fill="#EEDBC9" transform="translate(39.0625,22.9375)"/>
<path d="M0 0 C-0.15234375 1.765625 -0.15234375 1.765625 -1 4 C-3.50390625 5.921875 -3.50390625 5.921875 -6.5625 7.75 C-7.57441406 8.36359375 -8.58632812 8.9771875 -9.62890625 9.609375 C-10.41136719 10.06828125 -11.19382813 10.5271875 -12 11 C-10.68 10.67 -9.36 10.34 -8 10 C-8 10.66 -8 11.32 -8 12 C-11.23503733 14.14782149 -14.5311547 16.12943991 -17.87304688 18.10351562 C-21.26567672 20.1514867 -23.83439928 21.81421669 -26.5 24.8046875 C-30.03962289 27.91291885 -32.77236513 27.57622544 -37.3125 27.3125 C-38.05306641 27.28994141 -38.79363281 27.26738281 -39.55664062 27.24414062 C-41.37197357 27.1855815 -43.18625681 27.09590886 -45 27 C-41.00703213 22.41122278 -35.95552044 20.07044845 -30.66796875 17.26757812 C-29.97058594 16.88923828 -29.27320312 16.51089844 -28.5546875 16.12109375 C-27.60311768 15.61727173 -27.60311768 15.61727173 -26.63232422 15.10327148 C-24.68427459 13.936712 -24.68427459 13.936712 -23 11 C-23 10.34 -23 9.68 -23 9 C-22.36191406 8.66226563 -21.72382812 8.32453125 -21.06640625 7.9765625 C-20.24011719 7.53054687 -19.41382812 7.08453125 -18.5625 6.625 C-17.32693359 5.96371094 -17.32693359 5.96371094 -16.06640625 5.2890625 C-13.86533422 4.16581441 -13.86533422 4.16581441 -13 2 C-8.55499776 0.66649933 -4.6681169 -0.29175731 0 0 Z " fill="#CF446B" transform="translate(133,98)"/>
<path d="M0 0 C5.00849419 0.51107084 9.82765159 1.37465923 14.75 2.4375 C29.5327619 5.45914535 44.25558593 6.18159164 59.3125 6.1875 C59.97974091 6.18849701 60.64698181 6.18949402 61.33444214 6.19052124 C75.93056938 6.18805116 89.9867318 5.29624748 104.3125 2.4375 C106.68333646 1.9765393 109.05441761 1.51683472 111.42578125 1.05859375 C112.96359253 0.75393188 112.96359253 0.75393188 114.5324707 0.44311523 C117 0 117 0 119 0 C119 0.66 119 1.32 119 2 C111.95669999 4.58131414 105.09396804 6.00212734 97.6875 7.125 C96.1106543 7.37830078 96.1106543 7.37830078 94.50195312 7.63671875 C63.07842209 12.54242058 30.79425297 10.83781374 0 3 C0 2.01 0 1.02 0 0 Z " fill="#452C34" transform="translate(20,62)"/>
<path d="M0 0 C32.13748537 8.37473285 69.86949188 10.68269746 102.19970703 3.12182617 C104.4843198 2.84018015 106.07751379 3.17752193 108.25732422 3.86816406 C91.99720735 8.21827325 76.08293323 10.39080542 59.25732422 10.86816406 C58.03601807 10.90864868 58.03601807 10.90864868 56.79003906 10.94995117 C48.54198596 11.09858556 40.42939173 10.18345292 32.25732422 9.18066406 C31.53309265 9.09335022 30.80886108 9.00603638 30.06268311 8.91607666 C1.61465003 5.43971461 1.61465003 5.43971461 -6.74267578 -0.13183594 C-4.13170173 -1.43732296 -2.72420424 -0.7191729 0 0 Z " fill="#3E3230" transform="translate(22.74267578125,117.1318359375)"/>
<path d="M0 0 C3.4375 -0.5 3.4375 -0.5 7 0 C10.34494662 3.9940801 10.37357439 7.82666051 10.1875 12.8125 C10.16719727 13.85180664 10.16719727 13.85180664 10.14648438 14.91210938 C10.11138845 16.60841265 10.05758943 18.30431136 10 20 C2.97047248 19.5464821 -2.5849443 17.87940913 -9 15 C-8.37351562 14.77183594 -7.74703125 14.54367188 -7.1015625 14.30859375 C-4.30659397 12.56823231 -4.14290719 11.21276985 -3.375 8.0625 C-2.54708673 4.75571699 -1.92784888 2.89177332 0 0 Z " fill="#E8BE78" transform="translate(28,77)"/>
<path d="M0 0 C2.98718005 -0.38134213 5.04730039 -0.6027744 7.6484375 1.04296875 C9.70761583 4.02461137 9.57283869 7.1788639 9.6875 10.6875 C9.73874023 11.7403418 9.73874023 11.7403418 9.79101562 12.81445312 C9.87329947 14.54241387 9.9383324 16.27118072 10 18 C6.04 18 2.08 18 -2 18 C-2.05397335 15.5622037 -2.09365616 13.12560315 -2.125 10.6875 C-2.14175781 9.99720703 -2.15851562 9.30691406 -2.17578125 8.59570312 C-2.21217794 4.82864604 -2.14378864 3.21568296 0 0 Z " fill="#EFC37B" transform="translate(60,82)"/>
<path d="M0 0 C0.66 0.33 1.32 0.66 2 1 C1.21625 1.556875 0.4325 2.11375 -0.375 2.6875 C-4.12676111 6.32300936 -4.03224872 11.18105079 -4.54296875 16.13671875 C-5 19 -5 19 -7 21 C-10.03989923 21.32339354 -12.14368353 21.45670212 -14.875 20 C-16.30889845 17.45084719 -17.01677492 15.13752121 -16.95703125 12.19921875 C-14.72923718 7.07983891 -7.73896547 4.51407135 -3 2 C-2.01 1.34 -1.02 0.68 0 0 Z " fill="#DE6277" transform="translate(90,82)"/>
<path d="M0 0 C3.4375 0.8125 3.4375 0.8125 5.4375 2.8125 C5.71533543 6.82444366 5.5231495 10.78697362 5.4375 14.8125 C1.4775 14.8125 -2.4825 14.8125 -6.5625 14.8125 C-6.93204087 3.35673292 -6.93204087 3.35673292 -5.2734375 0.9140625 C-3.5625 -0.1875 -3.5625 -0.1875 0 0 Z " fill="#EAC078" transform="translate(95.5625,85.1875)"/>
<path d="M0 0 C3.36154619 0.726488 4.81376871 1.9119381 7.1328125 4.4609375 C8.01782228 7.51629317 8.24005424 10.54550898 8.4453125 13.7109375 C8.51814453 14.55140625 8.59097656 15.391875 8.66601562 16.2578125 C8.84210067 18.32387708 8.99022064 20.39229148 9.1328125 22.4609375 C12.7628125 23.1209375 16.3928125 23.7809375 20.1328125 24.4609375 C20.1328125 24.7909375 20.1328125 25.1209375 20.1328125 25.4609375 C18.34122761 25.48790115 16.54952777 25.50731667 14.7578125 25.5234375 C13.76007813 25.53503906 12.76234375 25.54664062 11.734375 25.55859375 C9.1328125 25.4609375 9.1328125 25.4609375 7.1328125 24.4609375 C4.58666241 24.22920923 2.05885025 24.04199221 -0.4921875 23.8984375 C-1.19859375 23.85525391 -1.905 23.81207031 -2.6328125 23.76757812 C-4.37737287 23.66148999 -6.12225447 23.56070861 -7.8671875 23.4609375 C-8.1971875 24.1209375 -8.5271875 24.7809375 -8.8671875 25.4609375 C-8.8671875 24.4709375 -8.8671875 23.4809375 -8.8671875 22.4609375 C-8.18011719 22.40035156 -7.49304687 22.33976562 -6.78515625 22.27734375 C-5.88410156 22.19355469 -4.98304687 22.10976562 -4.0546875 22.0234375 C-2.71470703 21.90162109 -2.71470703 21.90162109 -1.34765625 21.77734375 C1.26024809 21.52603983 1.26024809 21.52603983 4.1328125 20.4609375 C3.8028125 19.8009375 3.4728125 19.1409375 3.1328125 18.4609375 C2.85581531 15.11938412 2.68580546 11.77807876 2.51171875 8.4296875 C2.42583923 5.34603494 2.42583923 5.34603494 0.1328125 3.4609375 C-2.8671875 3.12760417 -2.8671875 3.12760417 -5.8671875 3.4609375 C-6.5271875 4.1209375 -7.1871875 4.7809375 -7.8671875 5.4609375 C-8.1971875 4.4709375 -8.5271875 3.4809375 -8.8671875 2.4609375 C-5.67500612 0.33281658 -3.76299318 0.1623252 0 0 Z " fill="#423132" transform="translate(65.8671875,79.5390625)"/>
<path d="M0 0 C4.02257636 8.73572377 4.02257636 8.73572377 3.9375 13.5 C3 16 3 16 0 18 C-3.0625 17.8125 -3.0625 17.8125 -6 17 C-8.2520563 13.62191555 -8.21436371 12.0141252 -7.6171875 8.07421875 C-6.55919347 4.51855527 -4.0573751 0 0 0 Z " fill="#E2903C" transform="translate(79,6)"/>
<path d="M0 0 C3.89951059 3.77371993 5.155137 5.56118811 5.25 11 C5.28867187 12.3303125 5.28867187 12.3303125 5.328125 13.6875 C5.21984375 14.450625 5.1115625 15.21375 5 16 C2 18 2 18 -1.0625 17.75 C-4 17 -4 17 -6 15 C-6.58102351 11.36860308 -6.57626626 8.95988537 -4.65625 5.76171875 C-3.16374915 3.77993106 -1.63103803 1.86889774 0 0 Z " fill="#E3903C" transform="translate(40,3)"/>
<path d="M0 0 C3 1 3 1 3.984375 2.890625 C6.59776536 10.94413408 6.59776536 10.94413408 5 15 C3 17 3 17 0.0625 17.375 C-3 17 -3 17 -4.9375 15.4375 C-6.5017524 11.84892096 -6.03402535 9.74834189 -5 6 C-3.49747207 3.74867127 -1.87834802 1.97467356 0 0 Z " fill="#E3903C" transform="translate(114,4)"/>
<path d="M0 0 C0.33 0.66 0.66 1.32 1 2 C-4.75 6 -4.75 6 -7 6 C-7.33 7.32 -7.66 8.64 -8 10 C-7.21625 9.484375 -6.4325 8.96875 -5.625 8.4375 C-4.75875 7.963125 -3.8925 7.48875 -3 7 C-2.34 7.33 -1.68 7.66 -1 8 C-1.99 9.485 -1.99 9.485 -3 11 C-2.34 11.33 -1.68 11.66 -1 12 C-1.495 12.433125 -1.99 12.86625 -2.5 13.3125 C-4.33218192 14.99740483 -4.33218192 14.99740483 -4 18 C-7.96 19.98 -7.96 19.98 -12 22 C-12.33 17.38 -12.66 12.76 -13 8 C-8.71 5.36 -4.42 2.72 0 0 Z " fill="#E35D7B" transform="translate(54,72)"/>
<path d="M0 0 C-0.33 0.99 -0.66 1.98 -1 3 C-2.45686603 3.31927064 -3.91562351 3.62990834 -5.375 3.9375 C-6.18710938 4.11152344 -6.99921875 4.28554687 -7.8359375 4.46484375 C-16.76711058 5.97542488 -25.58158081 6.12803202 -34.625 6.0625 C-36.41744141 6.05573242 -36.41744141 6.05573242 -38.24609375 6.04882812 C-41.16411647 6.03715603 -44.08203037 6.02078326 -47 6 C-47.33 5.34 -47.66 4.68 -48 4 C-46.64636353 3.91697632 -46.64636353 3.91697632 -45.26538086 3.83227539 C-41.89007138 3.62390689 -38.51493915 3.41300811 -35.13989258 3.20043945 C-33.68422579 3.10926866 -32.22849701 3.01908186 -30.77270508 2.92993164 C-28.66991034 2.80098328 -26.56737033 2.6683975 -24.46484375 2.53515625 C-23.202771 2.456604 -21.94069824 2.37805176 -20.64038086 2.29711914 C-15.67651198 1.89198009 -11.02574587 1.30772376 -6.25 -0.125 C-3 -1 -3 -1 0 0 Z " fill="#38342D" transform="translate(126,150)"/>
<path d="M0 0 C3.12208485 0.45689047 4.44560295 1.02289216 6.5625 3.375 C6.8125 6.5625 6.8125 6.5625 6.5625 9.375 C2.33300005 11.79185712 -0.56085991 12.72333144 -5.4375 12.375 C-5.51881463 10.93844146 -5.57683559 9.5005517 -5.625 8.0625 C-5.65980469 7.26199219 -5.69460937 6.46148437 -5.73046875 5.63671875 C-5.4375 3.375 -5.4375 3.375 -4.078125 1.60546875 C-2.4375 0.375 -2.4375 0.375 0 0 Z " fill="#E8BA78" transform="translate(126.4375,84.625)"/>
<path d="M0 0 C2.26953125 1.0234375 2.26953125 1.0234375 4 2 C1.71125827 3.33858524 -0.58069656 4.67101014 -2.875 6 C-3.52597656 6.3815625 -4.17695312 6.763125 -4.84765625 7.15625 C-9.7734375 10 -9.7734375 10 -12 10 C-13.38938077 8.03852126 -14.7260411 6.03833424 -16 4 C-10.66104969 0.36497 -6.48261507 -1.03050813 0 0 Z " fill="#E1557A" transform="translate(52,70)"/>
<path d="M0 0 C1 1 1 1 1.375 3.3125 C1 6 1 6 -1.125 8.375 C-4 10 -4 10 -7.25 9.8125 C-10 9 -10 9 -11 8 C-11.3125 5.625 -11.3125 5.625 -11 3 C-7.86028918 -0.64206455 -4.57002584 -0.34490761 0 0 Z " fill="#191919" transform="translate(552,58)"/>
<path d="M0 0 C0.99 0 1.98 0 3 0 C2.67 0.99 2.34 1.98 2 3 C1.69705618 5.83168318 1.49244942 8.66402835 1.28125 11.50390625 C1 14 1 14 0 16 C1.65 16.33 3.3 16.66 5 17 C5 17.33 5 17.66 5 18 C1.37 18.33 -2.26 18.66 -6 19 C-5.525625 18.21625 -5.05125 17.4325 -4.5625 16.625 C-2.85764301 12.66973178 -2.52418345 9.52252808 -2.30859375 5.26953125 C-2 3 -2 3 0 0 Z " fill="#2C2828" transform="translate(88,85)"/>
<path d="M0 0 C-5 6.57142857 -5 6.57142857 -10 8 C-10.99 6.68 -11.98 5.36 -13 4 C-8.38987758 1.04952165 -5.63470383 -0.5497272 0 0 Z " fill="#E2687A" transform="translate(49,70)"/>
<path d="M0 0 C-0.639375 0.103125 -1.27875 0.20625 -1.9375 0.3125 C-2.618125 0.539375 -3.29875 0.76625 -4 1 C-4.33 1.99 -4.66 2.98 -5 4 C-7.8712932 6.32115041 -10.70551865 8.13276732 -14.4375 7.75 C-14.953125 7.5025 -15.46875 7.255 -16 7 C-15.236875 6.401875 -14.47375 5.80375 -13.6875 5.1875 C-11.0879739 3.20641661 -11.0879739 3.20641661 -9.5625 1.3125 C-6.77565233 -1.02845204 -3.25080119 -1.6254006 0 0 Z " fill="#C63568" transform="translate(52,113)"/>
<path d="M0 0 C0.66 0.33 1.32 0.66 2 1 C0.23806673 2.8546666 -1.5384315 4.42023922 -3.5625 6 C-6.17306437 7.94393448 -6.17306437 7.94393448 -8 11 C-8.66 10.67 -9.32 10.34 -10 10 C-9.77734375 7.6796875 -9.77734375 7.6796875 -9 5 C-7.00390625 3.3828125 -7.00390625 3.3828125 -4.5625 2.125 C-3.75941406 1.69445313 -2.95632812 1.26390625 -2.12890625 0.8203125 C-1.42636719 0.54960938 -0.72382813 0.27890625 0 0 Z " fill="#3B2A2F" transform="translate(17,44)"/>
<path d="M0 0 C-0.33 0.99 -0.66 1.98 -1 3 C-4.96 3.66 -8.92 4.32 -13 5 C-13.33 4.01 -13.66 3.02 -14 2 C-12.23225581 1.46877637 -10.46065917 0.95035927 -8.6875 0.4375 C-7.70136719 0.14746094 -6.71523437 -0.14257812 -5.69921875 -0.44140625 C-3 -1 -3 -1 0 0 Z " fill="#3C372F" transform="translate(126,150)"/>
<path d="M0 0 C0.66 0.33 1.32 0.66 2 1 C0.22970554 2.29240512 -1.54125498 3.58389793 -3.3125 4.875 C-4.29863281 5.59429687 -5.28476563 6.31359375 -6.30078125 7.0546875 C-12.13964055 11.26272213 -12.13964055 11.26272213 -17 11 C-14.21503399 7.75258576 -10.60463249 5.83910905 -6.9375 3.75 C-6.30005859 3.37359375 -5.66261719 2.9971875 -5.00585938 2.609375 C-3.3733501 1.67356357 -1.68928489 0.82894277 0 0 Z " fill="#EBAD79" transform="translate(116,113)"/>
<path d="M0 0 C0.66 0.33 1.32 0.66 2 1 C-0.97 3.475 -0.97 3.475 -4 6 C-2.68 6.33 -1.36 6.66 0 7 C-3.06117568 9.62386487 -3.73173127 10 -8 10 C-8.5 7.8125 -8.5 7.8125 -8 5 C-5.56899818 2.89646189 -2.96359654 1.24970939 0 0 Z " fill="#E8827B" transform="translate(18,74)"/>
<path d="M0 0 C0.66 0.33 1.32 0.66 2 1 C-0.23936248 2.70347226 -2.48959087 4.38737537 -4.75 6.0625 C-5.70132813 6.79049805 -5.70132813 6.79049805 -6.671875 7.53320312 C-7.290625 7.98759766 -7.909375 8.44199219 -8.546875 8.91015625 C-9.39523926 9.54642944 -9.39523926 9.54642944 -10.26074219 10.19555664 C-12.52945484 11.24488401 -13.69450903 10.81487181 -16 10 C-15.09636719 9.44570312 -14.19273438 8.89140625 -13.26171875 8.3203125 C-12.07029421 7.58857144 -10.87888897 6.85679896 -9.6875 6.125 C-9.09259766 5.76019531 -8.49769531 5.39539063 -7.88476562 5.01953125 C-5.22637701 3.38588461 -2.59656263 1.73104176 0 0 Z " fill="#E8A777" transform="translate(104,114)"/>
<path d="M0 0 C0 0.99 0 1.98 0 3 C-0.66 3.66 -1.32 4.32 -2 5 C0.31 4.34 2.62 3.68 5 3 C2.16569547 6.2542015 0.31392226 7.5206753 -4 8 C-4.66 6.68 -5.32 5.36 -6 4 C-4.02 2.68 -2.04 1.36 0 0 Z " fill="#D96C71" transform="translate(83,117)"/>
<path d="M0 0 C0.33 0.66 0.66 1.32 1 2 C-0.95467752 3.33898399 -2.9133579 4.67129047 -4.875 6 C-5.96554688 6.7425 -7.05609375 7.485 -8.1796875 8.25 C-11 10 -11 10 -13 10 C-11.63603413 5.90810238 -9.65151017 5.38452673 -5.9375 3.3125 C-4.83277344 2.68988281 -3.72804688 2.06726563 -2.58984375 1.42578125 C-1.73519531 0.95527344 -0.88054688 0.48476562 0 0 Z " fill="#EEB07B" transform="translate(54,72)"/>
<path d="M0 0 C0 0.66 0 1.32 0 2 C-4.49656104 4.24828052 -8.07872966 4.16682272 -13 4 C-10.71151961 1.71151961 -9.60592283 1.5103024 -6.5 0.875 C-5.7059375 0.70742188 -4.911875 0.53984375 -4.09375 0.3671875 C-2 0 -2 0 0 0 Z " fill="#3D2A30" transform="translate(139,62)"/>
<path d="M0 0 C3.63 0.33 7.26 0.66 11 1 C11 1.33 11 1.66 11 2 C9.35 2 7.7 2 6 2 C6 2.66 6 3.32 6 4 C3.36 3.67 0.72 3.34 -2 3 C-1.34 2.67 -0.68 2.34 0 2 C0 1.34 0 0.68 0 0 Z " fill="#4B3935" transform="translate(40,121)"/>
<path d="M0 0 C0.66 0.33 1.32 0.66 2 1 C2 1.66 2 2.32 2 3 C0.75579353 3.5345256 -0.49570936 4.05208611 -1.75 4.5625 C-2.44609375 4.85253906 -3.1421875 5.14257812 -3.859375 5.44140625 C-6.30012784 6.07831803 -7.6403655 5.80248831 -10 5 C-8.38007835 4.13624104 -6.75388139 3.28424146 -5.125 2.4375 C-4.22007812 1.96183594 -3.31515625 1.48617187 -2.3828125 0.99609375 C-1.20332031 0.50302734 -1.20332031 0.50302734 0 0 Z " fill="#3C2C2F" transform="translate(141,114)"/>
<path d="M0 0 C2.64 0.33 5.28 0.66 8 1 C7.67 1.99 7.34 2.98 7 4 C4.69 3.67 2.38 3.34 0 3 C0 2.01 0 1.02 0 0 Z " fill="#4C2E37" transform="translate(20,62)"/>
<path d="M0 0 C0.66 1.32 1.32 2.64 2 4 C-2.455 4.495 -2.455 4.495 -7 5 C-7.33 4.34 -7.66 3.68 -8 3 C-5.36 2.01 -2.72 1.02 0 0 Z " fill="#242424" transform="translate(111,151)"/>
<path d="M0 0 C0.66 0.33 1.32 0.66 2 1 C0.76265016 2.03613033 -0.49044637 3.05347802 -1.75 4.0625 C-2.79414062 4.91521484 -2.79414062 4.91521484 -3.859375 5.78515625 C-6 7 -6 7 -8.265625 6.68359375 C-8.83796875 6.45800781 -9.4103125 6.23242188 -10 6 C-8.3811004 4.96951963 -6.75467511 3.95085322 -5.125 2.9375 C-4.22007813 2.36902344 -3.31515625 1.80054687 -2.3828125 1.21484375 C-1.20332031 0.61349609 -1.20332031 0.61349609 0 0 Z " fill="#EAA878" transform="translate(57,115)"/>
<path d="M0 0 C3.3 0.33 6.6 0.66 10 1 C10 1.66 10 2.32 10 3 C6.6875 3.1875 6.6875 3.1875 3 3 C2.01 2.01 1.02 1.02 0 0 Z " fill="#2D2729" transform="translate(26,64)"/>
<path d="M0 0 C0.66 0.33 1.32 0.66 2 1 C2 1.33 2 1.66 2 2 C2.66 2.33 3.32 2.66 4 3 C0.25 6 0.25 6 -2 6 C-2.33 4.68 -2.66 3.36 -3 2 C-2.01 1.34 -1.02 0.68 0 0 Z " fill="#E56C7A" transform="translate(44,80)"/>
<path d="M0 0 C0.625 1.8125 0.625 1.8125 1 4 C0.01 5.485 0.01 5.485 -1 7 C-1.66 6.67 -2.32 6.34 -3 6 C-2.625 3.5625 -2.625 3.5625 -2 1 C-1.34 0.67 -0.68 0.34 0 0 Z " fill="#633440" transform="translate(10,48)"/>
<path d="M0 0 C0 3 0 3 -1 5 C-3.32156597 5.40729228 -5.6568787 5.74438677 -8 6 C-5.38485683 3.87961365 -2.80362384 1.86908256 0 0 Z " fill="#D96170" transform="translate(126,116)"/>
<path d="M0 0 C0 0.66 0 1.32 0 2 C-1.28650706 2.69710731 -2.57940665 3.38242876 -3.875 4.0625 C-4.95394531 4.63677734 -4.95394531 4.63677734 -6.0546875 5.22265625 C-6.69664063 5.47917969 -7.33859375 5.73570313 -8 6 C-8.66 5.67 -9.32 5.34 -10 5 C-8.71186658 4.16121545 -7.41936744 3.32913217 -6.125 2.5 C-5.40570312 2.0359375 -4.68640625 1.571875 -3.9453125 1.09375 C-2 0 -2 0 0 0 Z " fill="#E38178" transform="translate(28,74)"/>
<path d="M0 0 C1.670625 0.061875 1.670625 0.061875 3.375 0.125 C3.045 1.115 2.715 2.105 2.375 3.125 C-0.265 2.795 -2.905 2.465 -5.625 2.125 C-3.625 0.125 -3.625 0.125 0 0 Z " fill="#482D35" transform="translate(39.625,65.875)"/>
<path d="M0 0 C-1.1875 1.5 -1.1875 1.5 -3 3 C-5.6875 3.1875 -5.6875 3.1875 -8 3 C-6 0 -6 0 -4 -0.75 C-2 -1 -2 -1 0 0 Z " fill="#252525" transform="translate(26,43)"/>
<path d="M0 0 C-2.93720508 1.52299523 -5.9168649 2.80100302 -9 4 C-6.73455663 -1.01633889 -5.27613404 -1.24961069 0 0 Z " fill="#482D35" transform="translate(128,84)"/>
<path d="M0 0 C1.98 0 3.96 0 6 0 C3.44008376 2.01136276 0.95409701 3.62845496 -2 5 C-1.34 3.35 -0.68 1.7 0 0 Z " fill="#D45374" transform="translate(60,82)"/>
</svg>
